<svg id="组_1" data-name="组 1" xmlns="http://www.w3.org/2000/svg" width="17" height="17" viewBox="0 0 17 17">
  <metadata><?xpacket begin="﻿" id="W5M0MpCehiHzreSzNTczkc9d"?>
<x:xmpmeta xmlns:x="adobe:ns:meta/" x:xmptk="Adobe XMP Core 5.6-c138 79.159824, 2016/09/14-01:09:01        ">
   <rdf:RDF xmlns:rdf="http://www.w3.org/1999/02/22-rdf-syntax-ns#">
      <rdf:Description rdf:about=""/>
   </rdf:RDF>
</x:xmpmeta>
                                                                                                    
                                                                                                    
                                                                                                    
                                                                                                    
                                                                                                    
                                                                                                    
                                                                                                    
                                                                                                    
                                                                                                    
                                                                                                    
                                                                                                    
                                                                                                    
                                                                                                    
                                                                                                    
                                                                                                    
                                                                                                    
                                                                                                    
                                                                                                    
                                                                                                    
                                                                                                    
                           
<?xpacket end="w"?></metadata>
<defs>
    <style>
      .cls-1, .cls-3, .cls-5, .cls-6, .cls-7 {
        font-size: 12px;
        font-family: "Microsoft YaHei";
      }

      .cls-1 {
        fill: #222;
      }

      .cls-2, .cls-5 {
        fill: #fff;
      }

      .cls-2 {
        stroke: #0089fe;
        stroke-width: 1px;
      }

      .cls-3, .cls-4, .cls-8 {
        fill: #0089fe;
      }

      .cls-6 {
        fill: #e32053;
      }

      .cls-7 {
        fill: #999;
      }

      .cls-8 {
        fill-rule: evenodd;
      }
    </style>
  </defs>
  <text id="_30" data-name="30" class="cls-1" x="-34.824" y="-35.85">30</text>
  <rect id="矩形_1" data-name="矩形 1" class="cls-2" x="-141" y="26" width="58" height="20"/>
  <text id="清空" class="cls-3" x="-124.053" y="39.688">清空</text>
  <rect id="矩形_1_拷贝" data-name="矩形 1 拷贝" class="cls-2" x="-81" y="26" width="58" height="20"/>
  <text id="今天" class="cls-3" x="-64.053" y="39.688">今天</text>
  <rect id="矩形_1_拷贝_3" data-name="矩形 1 拷贝 3" class="cls-4" x="-21" y="26" width="58" height="20"/>
  <text id="确定" class="cls-5" x="-4.053" y="39.688">确定</text>
  <text id="_5" data-name="5" class="cls-6" x="-132.069" y="-95.962">5</text>
  <text id="_12" data-name="12" class="cls-6" x="-135.069" y="-75.962">12</text>
  <text id="_19" data-name="19" class="cls-6" x="-135.069" y="-55.962">19</text>
  <text id="_26" data-name="26" class="cls-6" x="-135.069" y="-35.962">26</text>
  <text id="_4" data-name="4" class="cls-6" x="19.931" y="-115.962">4</text>
  <text id="_11" data-name="11" class="cls-6" x="16.931" y="-95.962">11</text>
  <text id="_18" data-name="18" class="cls-6" x="16.931" y="-75.962">18</text>
  <text id="_25" data-name="25" class="cls-6" x="16.931" y="-55.962">25</text>
  <text id="_29" data-name="29" class="cls-7" x="-135.385" y="-115.802">29</text>
  <text id="_30-2" data-name="30" class="cls-7" x="-111.385" y="-115.802">30</text>
  <text id="_31" data-name="31" class="cls-7" x="-85.385" y="-115.802">31</text>
  <text id="_1" data-name="1" class="cls-7" x="20.475" y="-35.271">1</text>
  <text id="_2" data-name="2" class="cls-7" x="-131.525" y="-16.271">2</text>
  <text id="_3" data-name="3" class="cls-7" x="-106.525" y="-16.271">3</text>
  <text id="_4-2" data-name="4" class="cls-7" x="-81.525" y="-16.271">4</text>
  <text id="_5-2" data-name="5" class="cls-7" x="-56.525" y="-16.271">5</text>
  <text id="_6" data-name="6" class="cls-7" x="-31.525" y="-16.271">6</text>
  <text id="_7" data-name="7" class="cls-7" x="-5.525" y="-16.271">7</text>
  <text id="_8" data-name="8" class="cls-7" x="20.475" y="-16.271">8</text>
  <path id="形状_5" data-name="形状 5" class="cls-8" d="M15.285,5.3l0.9-.428a8.47,8.47,0,0,1,.645,1.943l-0.981.2A7.433,7.433,0,0,0,15.285,5.3ZM13.023,2.516l0.6-.8A8.519,8.519,0,0,1,15.1,3.141l-0.776.631A7.529,7.529,0,0,0,13.023,2.516ZM8,9V2H9V8h4V9H8ZM9.729,1.1l0.162-.986a8.438,8.438,0,0,1,1.966.574l-0.4.919A7.431,7.431,0,0,0,9.729,1.1ZM7.5,1.075A7.144,7.144,0,0,0,4.518,2.156c-0.145.091-.287,0.188-0.425,0.289a7.558,7.558,0,0,0-1.048.924c-0.131.139-.26,0.281-0.38,0.429a7.529,7.529,0,0,0-.689,1.016c-0.091.162-.175,0.328-0.254,0.5a7.437,7.437,0,0,0-.466,1.28c-0.051.2-.1,0.393-0.133,0.6a7.491,7.491,0,0,0-.115,1.171c0,0.225,0,.448.019,0.668a7.452,7.452,0,0,0,.206,1.293c0.048,0.193.1,0.383,0.164,0.569a7.456,7.456,0,0,0,.47,1.1c0.1,0.193.213,0.379,0.331,0.562a7.544,7.544,0,0,0,.831,1.063q0.163,0.174.336,0.338a7.547,7.547,0,0,0,1.071.843c0.178,0.115.359,0.226,0.548,0.326a7.462,7.462,0,0,0,1.1.472c0.189,0.064.382,0.12,0.578,0.17a7.437,7.437,0,0,0,1.2.205c0.252,0.021.509,0.03,0.762,0.027A7.5,7.5,0,0,0,9.8,15.879c0.193-.034.383-0.076,0.571-0.125a7.439,7.439,0,0,0,1.274-.455c0.178-.083.355-0.17,0.526-0.266a7.524,7.524,0,0,0,1-.679c0.142-.113.276-0.234,0.409-0.357a7.547,7.547,0,0,0,.974-1.094c0.089-.123.176-0.247,0.258-0.375a7.484,7.484,0,0,0,.578-1.078,7.368,7.368,0,0,0,.28-0.766,7.458,7.458,0,0,0,.247-1.15q0.039-.28.056-0.568C15.986,8.812,16,8.658,16,8.5h1c0,0.1-.012.2-0.015,0.3h0.01c0,0.074-.017.14-0.021,0.213-0.014.223-.035,0.444-0.065,0.662-0.009.064-.009,0.134-0.02,0.2l-0.011,0a8.434,8.434,0,0,1-.233,1.039l0.006,0c-0.006.019-.015,0.037-0.02,0.056a8.43,8.43,0,0,1-.321.877c-0.01.023-.016,0.048-0.026,0.07l-0.007,0a8.452,8.452,0,0,1-.495.945l0.012,0.007c-0.041.068-.092,0.13-0.135,0.2-0.1.149-.2,0.293-0.3,0.435-0.059.081-.108,0.168-0.17,0.247l-0.009-.007a8.568,8.568,0,0,1-.7.8l0,0c-0.067.067-.145,0.123-0.214,0.187-0.152.141-.305,0.278-0.467,0.408-0.042.034-.079,0.073-0.122,0.106l-0.007-.01a8.535,8.535,0,0,1-.881.6l0.005,0.009c-0.039.023-.082,0.039-0.122,0.062-0.209.118-.425,0.226-0.644,0.327-0.063.029-.121,0.066-0.184,0.093l0,0a8.439,8.439,0,0,1-1.007.353l0,0.008c-0.076.022-.155,0.031-0.232,0.051-0.207.053-.416,0.1-0.629,0.138-0.061.011-.12,0.03-0.181,0.04l0-.012a8.5,8.5,0,0,1-1.061.1V17c-0.052,0-.105,0-0.157,0-0.026,0-.05,0-0.076,0s-0.062,0-.093,0c-0.074,0-.148,0-0.222,0-0.174-.006-0.345-0.018-0.516-0.035h0a8.423,8.423,0,0,1-1.051-.175l0,0.006c-0.063-.014-0.122-0.039-0.184-0.054-0.233-.058-0.462-0.125-0.687-0.2-0.049-.017-0.1-0.027-0.152-0.045l0-.01a8.431,8.431,0,0,1-.977-0.425l0,0.009C4.58,16.045,4.548,16.021,4.513,16c-0.223-.119-0.438-0.249-0.649-0.387-0.054-.035-0.112-0.062-0.165-0.1l0-.006a8.564,8.564,0,0,1-.836-0.662l-0.008.009C2.8,14.8,2.744,14.738,2.683,14.681q-0.2-.189-0.388-0.391c-0.06-.065-0.128-0.121-0.187-0.188l0.009-.008a8.533,8.533,0,0,1-.657-0.837l0,0C1.423,13.21,1.4,13.154,1.365,13.1,1.228,12.892,1.1,12.674.98,12.449c-0.02-.037-0.045-0.071-0.064-0.108l0.009,0a8.445,8.445,0,0,1-.42-0.978l-0.011,0C0.475,11.31.466,11.256,0.448,11.2,0.376,10.989.315,10.769,0.26,10.547c-0.017-.071-0.045-0.139-0.06-0.21H0.205A8.439,8.439,0,0,1,.04,9.283h0C0.03,9.221.035,9.158,0.03,9.1,0.016,8.9,0,8.7,0,8.5c0-.055.007-0.108,0.008-0.163,0-.04,0-0.079,0-0.119H0.014a8.506,8.506,0,0,1,.1-1.059l-0.01,0c0.008-.051.025-0.1,0.034-0.15,0.041-.231.093-0.457,0.152-0.681C0.31,6.258.319,6.186,0.339,6.118l0.006,0a8.446,8.446,0,0,1,.361-1l-0.006,0c0.034-.079.081-0.152,0.117-0.229C0.909,4.692,1,4.5,1.108,4.319c0.029-.051.05-0.106,0.08-0.155L1.2,4.17a8.528,8.528,0,0,1,.6-0.88l-0.01-.007c0.03-.039.067-0.072,0.1-0.111C2.024,3,2.171,2.841,2.321,2.681c0.06-.064.112-0.135,0.174-0.2l0,0a8.566,8.566,0,0,1,.805-0.7L3.3,1.78c0.069-.054.147-0.1,0.218-0.148q0.23-.168.471-0.32C4.05,1.27,4.111,1.22,4.177,1.181l0.006,0.01A8.493,8.493,0,0,1,5.128.7l0,0c0.015-.007.032-0.01,0.047-0.017A8.445,8.445,0,0,1,6.058.361C6.082,0.354,6.106.343,6.13,0.336l0,0.007A8.434,8.434,0,0,1,7.173.114l0-.011C7.234,0.093,7.3.094,7.364,0.085,7.575,0.057,7.788.038,8,.025,8.08,0.021,8.155.006,8.232,0v0.01C8.322,0.011,8.41,0,8.5,0V1c-0.148,0-.292.014-0.437,0.022C7.874,1.033,7.686,1.05,7.5,1.075Z"/>
</svg>
