<svg xmlns="http://www.w3.org/2000/svg" width="30" height="31.156" viewBox="0 0 30 31.156">
  <metadata><?xpacket begin="﻿" id="W5M0MpCehiHzreSzNTczkc9d"?>
<x:xmpmeta xmlns:x="adobe:ns:meta/" x:xmptk="Adobe XMP Core 5.6-c138 79.159824, 2016/09/14-01:09:01        ">
   <rdf:RDF xmlns:rdf="http://www.w3.org/1999/02/22-rdf-syntax-ns#">
      <rdf:Description rdf:about=""/>
   </rdf:RDF>
</x:xmpmeta>
                                                                                                    
                                                                                                    
                                                                                                    
                                                                                                    
                                                                                                    
                                                                                                    
                                                                                                    
                                                                                                    
                                                                                                    
                                                                                                    
                                                                                                    
                                                                                                    
                                                                                                    
                                                                                                    
                                                                                                    
                                                                                                    
                                                                                                    
                                                                                                    
                                                                                                    
                                                                                                    
                           
<?xpacket end="w"?></metadata>
<defs>
    <style>
      .cls-1 {
        fill: #ddd;
        fill-rule: evenodd;
      }
    </style>
  </defs>
  <path id="形状_5_拷贝_2" data-name="形状 5 拷贝 2" class="cls-1" d="M742,300.578c-0.072.127-.129,0.261-0.208,0.385a9.325,9.325,0,0,1-2.239,2.426A14.556,14.556,0,0,1,742,304.718v3.965c-0.018-.018-0.033-0.037-0.05-0.055A11.291,11.291,0,0,0,734,305.339a1.631,1.631,0,0,1-.442-0.032l-0.023,0a11.3,11.3,0,0,0-7.7,3.287,11.084,11.084,0,0,0-3.324,7.926,1.561,1.561,0,0,1-3.122,0,14.026,14.026,0,0,1,2.9-8.564,14.588,14.588,0,0,1,5.911-4.583,9.245,9.245,0,0,1-2.428-2.763,9.1,9.1,0,0,1-1.2-4.512,9.338,9.338,0,0,1,17.43-4.5v8.989Zm-8.113-10.592a6.112,6.112,0,1,0,6.2,6.112A6.163,6.163,0,0,0,733.887,289.986Zm-10.381,1.728a4.955,4.955,0,0,0,0,9.89,1.551,1.551,0,0,1,1.561,1.539v0a1.551,1.551,0,0,1-1.561,1.539,9.046,9.046,0,0,0-8.784,9.267,1.552,1.552,0,0,1-1.561,1.539c-0.861,0-1.161-1.643-1.161-2.492a9.49,9.49,0,0,1,1.883-6.305,12.04,12.04,0,0,1,4.6-3.932,8.151,8.151,0,0,1-1.649-2.082,8.234,8.234,0,0,1-1.1-4.025,7.907,7.907,0,0,1,7.769-8.021A1.54,1.54,0,1,1,723.506,291.714Z" transform="translate(-712 -286.906)"/>
</svg>
