<svg xmlns="http://www.w3.org/2000/svg" width="20" height="24.031" viewBox="0 0 20 24.031">
  <metadata><?xpacket begin="﻿" id="W5M0MpCehiHzreSzNTczkc9d"?>
<x:xmpmeta xmlns:x="adobe:ns:meta/" x:xmptk="Adobe XMP Core 5.6-c142 79.160924, 2017/07/13-01:06:39        ">
   <rdf:RDF xmlns:rdf="http://www.w3.org/1999/02/22-rdf-syntax-ns#">
      <rdf:Description rdf:about=""/>
   </rdf:RDF>
</x:xmpmeta>
                                                                                                    
                                                                                                    
                                                                                                    
                                                                                                    
                                                                                                    
                                                                                                    
                                                                                                    
                                                                                                    
                                                                                                    
                                                                                                    
                                                                                                    
                                                                                                    
                                                                                                    
                                                                                                    
                                                                                                    
                                                                                                    
                                                                                                    
                                                                                                    
                                                                                                    
                                                                                                    
                           
<?xpacket end="w"?></metadata>
<defs>
    <style>
      .cls-1 {
        fill: #8bce56;
        fill-rule: evenodd;
      }
    </style>
  </defs>
  <path id="安卓" class="cls-1" d="M432,446a1.473,1.473,0,0,0-1-1c-2,0-2.94-.007-4.937-0.007S422.989,445,421,445a1.379,1.379,0,0,0-1,1c0,3.546,0,6.454,0,10,0,0.078,0-.078,0,0a0.931,0.931,0,0,0,1,1c0.323,0,.677,0,1,0,0.169,0,.07.413,0.069,0.589,0,1.029-.065,2.383-0.069,3.411,0,0.715.33,0.81,0.923,0.935a3.035,3.035,0,0,0,1.186,0,1.228,1.228,0,0,0,.812-1.061c-0.019-1.082,0-2.166-.008-3.249,0-.216-0.116-0.623.087-0.62,0.578,0.01,1.422,0,2,0,0.355,0,0,.635,0,1,0,1.036,0,1.964,0,3a1.2,1.2,0,0,0,1.232.955,3.622,3.622,0,0,0,.919.019,1.039,1.039,0,0,0,.343-0.1A0.726,0.726,0,0,0,430,461c0-1.021,0-1.979,0-3,0-.287-0.282-1,0-1,0.308,0,.692.009,1,0a1.089,1.089,0,0,0,1-1c-0.017-.407,0-0.6,0-1,0-3.055,0-5.945,0-9,0-.195-0.137.331,0,0h0Zm-1-1-11-1h12c0.3,0,.1-0.717,0-1-0.543-1.567-1.2-1.867-2.569-2.737-0.216-.137-0.234-0.233-0.093-0.455,0.156-.247.312-0.5,0.465-0.744s0.287-.474.425-0.715a0.211,0.211,0,0,0-.055-0.307,0.2,0.2,0,0,0-.293.066c-0.039.048-.068,0.1-0.1,0.154-0.315.474-.569,0.988-0.9,1.454a0.219,0.219,0,0,1-.319.095,4.184,4.184,0,0,0-.631-0.246,6.462,6.462,0,0,0-4.408.229,0.205,0.205,0,0,1-.3-0.1c-0.144-.246-0.3-0.487-0.446-0.73-0.174-.282-0.347-0.565-0.522-0.845a0.209,0.209,0,1,0-.357.218c0.04,0.075.075,0.153,0.119,0.225,0.247,0.4.5,0.8,0.745,1.195,0.152,0.244.137,0.344-.084,0.475a13.769,13.769,0,0,0-1.481,1.206A3.011,3.011,0,0,0,420,443c-0.1.319-.312,1.245,0.02,1.245Zm8.649-2.546a0.691,0.691,0,0,1,.014,1.38,0.717,0.717,0,0,1-.675-0.683,0.742,0.742,0,0,1,.661-0.7h0Zm-5.324.1a0.66,0.66,0,0,1,.6.688,0.675,0.675,0,0,1-.608.684,0.694,0.694,0,0,1-.656-0.685,0.642,0.642,0,0,1,.666-0.687h0Zm0,0M436,448.692c0-.654.01-1.308-0.006-1.962a1.106,1.106,0,0,0-.618-1.027,2.018,2.018,0,0,0-1.01-.147,1.145,1.145,0,0,0-1.207,1.254q0,1.611,0,3.223,0,1.645,0,3.293a1.134,1.134,0,0,0,.562,1.042,1.835,1.835,0,0,0,1.138.152,0.877,0.877,0,0,0,.352-0.016,1.306,1.306,0,0,0,.794-1.258c-0.013-1.518,0-3.036,0-4.554h0Zm0,0-18.26-3.137c-0.173,0-.345,0-0.518,0a1.223,1.223,0,0,0-1.211,1.41,5.418,5.418,0,0,1,.028.583v2.781c0,1.021,0,2.041,0,3.061a1.092,1.092,0,0,0,.578.982,1.812,1.812,0,0,0,1.185.148,1.157,1.157,0,0,0,1.075-1.256c0-.42-0.035-0.84-0.032-1.26,0.01-1.752-.04-3.5.033-5.256a1.174,1.174,0,0,0-1.14-1.193h0Zm0,0" transform="translate(-416 -438)"/>
</svg>
