<svg xmlns="http://www.w3.org/2000/svg" width="27.781" height="32" viewBox="0 0 27.781 32">
  <metadata><?xpacket begin="﻿" id="W5M0MpCehiHzreSzNTczkc9d"?>
<x:xmpmeta xmlns:x="adobe:ns:meta/" x:xmptk="Adobe XMP Core 5.6-c138 79.159824, 2016/09/14-01:09:01        ">
   <rdf:RDF xmlns:rdf="http://www.w3.org/1999/02/22-rdf-syntax-ns#">
      <rdf:Description rdf:about=""/>
   </rdf:RDF>
</x:xmpmeta>
                                                                                                    
                                                                                                    
                                                                                                    
                                                                                                    
                                                                                                    
                                                                                                    
                                                                                                    
                                                                                                    
                                                                                                    
                                                                                                    
                                                                                                    
                                                                                                    
                                                                                                    
                                                                                                    
                                                                                                    
                                                                                                    
                                                                                                    
                                                                                                    
                                                                                                    
                                                                                                    
                           
<?xpacket end="w"?></metadata>
<defs>
    <style>
      .cls-1 {
        fill: #ddd;
        fill-rule: evenodd;
      }
    </style>
  </defs>
  <path id="形状_4_拷贝" data-name="形状 4 拷贝" class="cls-1" d="M587,298.932l-5.7-.83a2.79,2.79,0,0,1-2-1.4l-3.272-6.7-3.324,6.648a2.494,2.494,0,0,1-2.006,1.4l-7.493,1.142,5.383,5.194a2.462,2.462,0,0,1,.738,2.285l-1.744,8.12,7.232-4.277a2.523,2.523,0,0,1,2.428,0l7.117,4.277-1.682-8.12a2.6,2.6,0,0,1,.739-2.285l3.59-3.465v4.484l-1,.97a0.82,0.82,0,0,0-.179.531L587,313.761v2.97a2.433,2.433,0,0,1-1.71,1.212,2.487,2.487,0,0,1-1.485-.236l-7.546-3.954a1.019,1.019,0,0,0-.594,0l-7.546,3.954a2.367,2.367,0,0,1-3.208-1,2.178,2.178,0,0,1-.238-1.476l1.426-8.321a0.59,0.59,0,0,0-.178-0.531l-6-5.9a2.393,2.393,0,0,1-.06-3.364,2.764,2.764,0,0,1,1.367-.708l8.437-1.239a0.817,0.817,0,0,0,.476-0.3l3.743-7.554a2.388,2.388,0,0,1,3.208-1.063,2.325,2.325,0,0,1,1.07,1.063l3.684,7.613a0.47,0.47,0,0,0,.475.295l4.68,0.687v3.023Z" transform="translate(-559.219 -286)"/>
</svg>
