<svg xmlns="http://www.w3.org/2000/svg" width="25" height="32" viewBox="0 0 25 32">
  <metadata><?xpacket begin="﻿" id="W5M0MpCehiHzreSzNTczkc9d"?>
<x:xmpmeta xmlns:x="adobe:ns:meta/" x:xmptk="Adobe XMP Core 5.6-c138 79.159824, 2016/09/14-01:09:01        ">
   <rdf:RDF xmlns:rdf="http://www.w3.org/1999/02/22-rdf-syntax-ns#">
      <rdf:Description rdf:about=""/>
   </rdf:RDF>
</x:xmpmeta>
                                                                                                    
                                                                                                    
                                                                                                    
                                                                                                    
                                                                                                    
                                                                                                    
                                                                                                    
                                                                                                    
                                                                                                    
                                                                                                    
                                                                                                    
                                                                                                    
                                                                                                    
                                                                                                    
                                                                                                    
                                                                                                    
                                                                                                    
                                                                                                    
                                                                                                    
                                                                                                    
                           
<?xpacket end="w"?></metadata>
<defs>
    <style>
      .cls-1 {
        fill: #ddd;
        fill-rule: evenodd;
      }
    </style>
  </defs>
  <path id="形状_6_拷贝" data-name="形状 6 拷贝" class="cls-1" d="M897,289.012H876.4a1.9,1.9,0,0,0-2.016,1.9c0,1.136.892,1.031,2.016,1.031H897v3.107l-20.578.047A1.124,1.124,0,0,1,875,294.25v18.937c0,1.137.276,1.8,1.4,1.8H897v3.006H876.422c-2.662,0-4.422-2.3-4.422-4.994V291c0-2.692,1.76-5.01,4.422-5.01H897v3.022ZM880.966,307.32a0.642,0.642,0,0,1,.068.212l-0.618,3.645a1.917,1.917,0,0,0,.379,1.578,1.659,1.659,0,0,0,1.3.6,2.026,2.026,0,0,0,.951-0.25l3.233-1.719a0.567,0.567,0,0,1,.114-0.011,0.583,0.583,0,0,1,.116.011l3.231,1.718a2.016,2.016,0,0,0,.951.251,1.659,1.659,0,0,0,1.3-.6,1.92,1.92,0,0,0,.379-1.578l-0.618-3.645a0.642,0.642,0,0,1,.068-0.212l2.619-2.581a1.852,1.852,0,0,0,.533-1.9,1.825,1.825,0,0,0-1.536-1.221l-3.619-.532a0.617,0.617,0,0,1-.178-0.131l-1.619-3.316a1.746,1.746,0,0,0-3.245,0l-1.618,3.315a0.621,0.621,0,0,1-.179.131l-3.619.532a1.825,1.825,0,0,0-1.536,1.22,1.855,1.855,0,0,0,.533,1.9Zm2.422-3.444a3.168,3.168,0,0,0,2.254-1.656l0.747-1.53,0.747,1.53a3.163,3.163,0,0,0,2.253,1.656l1.671,0.245-1.209,1.192a3.218,3.218,0,0,0-.861,2.678l0.285,1.683-1.494-.795a3.146,3.146,0,0,0-2.785,0l-1.494.795,0.285-1.683a3.218,3.218,0,0,0-.86-2.678l-1.209-1.192,1.67-.245h0Z" transform="translate(-872 -286)"/>
</svg>
