<svg xmlns="http://www.w3.org/2000/svg" width="18.688" height="10" viewBox="0 0 18.688 10">
  <metadata><?xpacket begin="﻿" id="W5M0MpCehiHzreSzNTczkc9d"?>
<x:xmpmeta xmlns:x="adobe:ns:meta/" x:xmptk="Adobe XMP Core 5.6-c142 79.160924, 2017/07/13-01:06:39        ">
   <rdf:RDF xmlns:rdf="http://www.w3.org/1999/02/22-rdf-syntax-ns#">
      <rdf:Description rdf:about=""/>
   </rdf:RDF>
</x:xmpmeta>
                                                                                                    
                                                                                                    
                                                                                                    
                                                                                                    
                                                                                                    
                                                                                                    
                                                                                                    
                                                                                                    
                                                                                                    
                                                                                                    
                                                                                                    
                                                                                                    
                                                                                                    
                                                                                                    
                                                                                                    
                                                                                                    
                                                                                                    
                                                                                                    
                                                                                                    
                                                                                                    
                           
<?xpacket end="w"?></metadata>
<defs>
    <style>
      .cls-1 {
        fill: #888;
        fill-rule: evenodd;
      }
    </style>
  </defs>
  <path id="循环" class="cls-1" d="M336.207,753.5l0.147,0.146-0.708.708-0.146-.147-0.146.147-0.708-.708,0.147-.146-3.147-3.147,0.708-.707L335,752.293V749a2.239,2.239,0,0,0-2-2h-7c0-1.105.253-1.021,2-1h5a3.247,3.247,0,0,1,3,3v3.293l2.646-2.647,0.708,0.707Zm-7.853-1.854-0.708.708L325,749.707V753a2.239,2.239,0,0,0,2,2h7c0,1.105-.253,1.022-2,1h-5a3.247,3.247,0,0,1-3-3v-3.293l-2.646,2.647-0.708-.708,3.147-3.146-0.147-.146,0.708-.708,0.146,0.147,0.146-.147,0.708,0.708-0.147.146Z" transform="translate(-320.656 -746)"/>
</svg>
