<svg xmlns="http://www.w3.org/2000/svg" width="22" height="22" viewBox="0 0 22 22">
  <metadata><?xpacket begin="﻿" id="W5M0MpCehiHzreSzNTczkc9d"?>
<x:xmpmeta xmlns:x="adobe:ns:meta/" x:xmptk="Adobe XMP Core 5.6-c142 79.160924, 2017/07/13-01:06:39        ">
   <rdf:RDF xmlns:rdf="http://www.w3.org/1999/02/22-rdf-syntax-ns#">
      <rdf:Description rdf:about=""/>
   </rdf:RDF>
</x:xmpmeta>
                                                                                                    
                                                                                                    
                                                                                                    
                                                                                                    
                                                                                                    
                                                                                                    
                                                                                                    
                                                                                                    
                                                                                                    
                                                                                                    
                                                                                                    
                                                                                                    
                                                                                                    
                                                                                                    
                                                                                                    
                                                                                                    
                                                                                                    
                                                                                                    
                                                                                                    
                                                                                                    
                           
<?xpacket end="w"?></metadata>
<defs>
    <style>
      .cls-1 {
        fill: #0089fe;
        fill-rule: evenodd;
      }
    </style>
  </defs>
  <path id="帮助" class="cls-1" d="M757,328a11,11,0,1,1,11-11,11,11,0,0,1-11,11h0Zm-1.265-3.468a1.477,1.477,0,0,0,1.12.462,1.718,1.718,0,0,0,1.164-.44,1.548,1.548,0,0,0,.461-1.142,1.434,1.434,0,0,0-.461-1.12,1.573,1.573,0,0,0-1.164-.439,1.47,1.47,0,0,0-1.12.439,1.405,1.405,0,0,0-.483,1.12,1.485,1.485,0,0,0,.483,1.12h0Zm4.942-14.364A4.968,4.968,0,0,0,757.228,309a4.845,4.845,0,0,0-5.2,5.183h2.328a3.718,3.718,0,0,1,.593-2.262A2.463,2.463,0,0,1,757.1,311a2.494,2.494,0,0,1,1.844.659,2.53,2.53,0,0,1,.637,1.8,2.589,2.589,0,0,1-.593,1.6l-0.373.417a12.048,12.048,0,0,0-2.5,2.724A3.668,3.668,0,0,0,756,320h2a2,2,0,0,1,.392-1.178,3.827,3.827,0,0,1,.9-1.12,21.366,21.366,0,0,0,1.867-1.714,4.322,4.322,0,0,0,.813-2.679,4.011,4.011,0,0,0-1.3-3.141h0Zm0,0" transform="translate(-746 -306)"/>
</svg>
