<svg xmlns="http://www.w3.org/2000/svg" width="22" height="22" viewBox="0 0 22 22">
  <metadata><?xpacket begin="﻿" id="W5M0MpCehiHzreSzNTczkc9d"?>
<x:xmpmeta xmlns:x="adobe:ns:meta/" x:xmptk="Adobe XMP Core 5.6-c142 79.160924, 2017/07/13-01:06:39        ">
   <rdf:RDF xmlns:rdf="http://www.w3.org/1999/02/22-rdf-syntax-ns#">
      <rdf:Description rdf:about=""/>
   </rdf:RDF>
</x:xmpmeta>
                                                                                                    
                                                                                                    
                                                                                                    
                                                                                                    
                                                                                                    
                                                                                                    
                                                                                                    
                                                                                                    
                                                                                                    
                                                                                                    
                                                                                                    
                                                                                                    
                                                                                                    
                                                                                                    
                                                                                                    
                                                                                                    
                                                                                                    
                                                                                                    
                                                                                                    
                                                                                                    
                           
<?xpacket end="w"?></metadata>
<defs>
    <style>
      .cls-1 {
        fill: #888;
        fill-rule: evenodd;
      }
    </style>
  </defs>
  <path id="帮助" class="cls-1" d="M1207,51a11,11,0,1,1,11-11,11,11,0,0,1-11,11h0Zm-1.27-3.468a1.5,1.5,0,0,0,1.12.461,1.74,1.74,0,0,0,1.17-.439,1.54,1.54,0,0,0,.46-1.142,1.427,1.427,0,0,0-.46-1.12,1.573,1.573,0,0,0-1.17-.439,1.488,1.488,0,0,0-1.12.439,1.41,1.41,0,0,0-.48,1.12,1.5,1.5,0,0,0,.48,1.12h0Zm4.95-14.365A4.99,4.99,0,0,0,1207.23,32a4.852,4.852,0,0,0-5.21,5.184h2.33a3.754,3.754,0,0,1,.59-2.262,2.948,2.948,0,0,1,4-.264,2.509,2.509,0,0,1,.64,1.8,2.619,2.619,0,0,1-.59,1.6l-0.38.417a12.113,12.113,0,0,0-2.5,2.724A3.643,3.643,0,0,0,1206,43h2a2.025,2.025,0,0,1,.39-1.178,3.829,3.829,0,0,1,.9-1.12,20.844,20.844,0,0,0,1.87-1.713,4.328,4.328,0,0,0,.81-2.679,4.021,4.021,0,0,0-1.29-3.141h0Zm0,0" transform="translate(-1196 -29)"/>
</svg>
