<svg xmlns="http://www.w3.org/2000/svg" width="18" height="21" viewBox="0 0 18 21">
  <metadata><?xpacket begin="﻿" id="W5M0MpCehiHzreSzNTczkc9d"?>
<x:xmpmeta xmlns:x="adobe:ns:meta/" x:xmptk="Adobe XMP Core 5.6-c142 79.160924, 2017/07/13-01:06:39        ">
   <rdf:RDF xmlns:rdf="http://www.w3.org/1999/02/22-rdf-syntax-ns#">
      <rdf:Description rdf:about=""/>
   </rdf:RDF>
</x:xmpmeta>
                                                                                                    
                                                                                                    
                                                                                                    
                                                                                                    
                                                                                                    
                                                                                                    
                                                                                                    
                                                                                                    
                                                                                                    
                                                                                                    
                                                                                                    
                                                                                                    
                                                                                                    
                                                                                                    
                                                                                                    
                                                                                                    
                                                                                                    
                                                                                                    
                                                                                                    
                                                                                                    
                           
<?xpacket end="w"?></metadata>
<defs>
    <style>
      .cls-1 {
        fill: #0089fe;
        fill-rule: evenodd;
      }
    </style>
  </defs>
  <path id="活动" class="cls-1" d="M36,260a1,1,0,0,1,1,1v19a1,1,0,0,1-2,0V261A1,1,0,0,1,36,260Zm9,1H37v11h6a3.511,3.511,0,0,1,1,2c0,1.279,5.637,1,7.988,1A1.555,1.555,0,0,0,53,274v-9a1.549,1.549,0,0,0-.99-1c-2.141,0-6.01.386-6.01-1A3.464,3.464,0,0,0,45,261Z" transform="translate(-35 -260)"/>
</svg>
