<svg xmlns="http://www.w3.org/2000/svg" width="24" height="24" viewBox="0 0 24 24">
  <metadata><?xpacket begin="﻿" id="W5M0MpCehiHzreSzNTczkc9d"?>
<x:xmpmeta xmlns:x="adobe:ns:meta/" x:xmptk="Adobe XMP Core 5.6-c142 79.160924, 2017/07/13-01:06:39        ">
   <rdf:RDF xmlns:rdf="http://www.w3.org/1999/02/22-rdf-syntax-ns#">
      <rdf:Description rdf:about=""/>
   </rdf:RDF>
</x:xmpmeta>
                                                                                                    
                                                                                                    
                                                                                                    
                                                                                                    
                                                                                                    
                                                                                                    
                                                                                                    
                                                                                                    
                                                                                                    
                                                                                                    
                                                                                                    
                                                                                                    
                                                                                                    
                                                                                                    
                                                                                                    
                                                                                                    
                                                                                                    
                                                                                                    
                                                                                                    
                                                                                                    
                           
<?xpacket end="w"?></metadata>
<defs>
    <style>
      .cls-1 {
        fill: #888;
        fill-rule: evenodd;
      }
    </style>
  </defs>
  <path id="上传图片_拷贝_2" data-name="上传图片 拷贝 2" class="cls-1" d="M940,767a12,12,0,1,1-12,12A12,12,0,0,1,940,767Zm0,1a11,11,0,1,1-11,11A11,11,0,0,1,940,768Zm-5,5h10a2,2,0,0,1,2,2v8a2,2,0,0,1-2,2H935a2,2,0,0,1-2-2v-8A2,2,0,0,1,935,773Zm0,11s2.34-8,3-8c0.622,0,3,8,3,8s1.358-4,2-4c0.577,0,2,4,2,4H935Zm8.5-9a1.5,1.5,0,1,1-1.5,1.5A1.5,1.5,0,0,1,943.5,775Z" transform="translate(-928 -767)"/>
</svg>
