<svg xmlns="http://www.w3.org/2000/svg" width="16" height="16" viewBox="0 0 16 16">
  <metadata><?xpacket begin="﻿" id="W5M0MpCehiHzreSzNTczkc9d"?>
<x:xmpmeta xmlns:x="adobe:ns:meta/" x:xmptk="Adobe XMP Core 5.6-c142 79.160924, 2017/07/13-01:06:39        ">
   <rdf:RDF xmlns:rdf="http://www.w3.org/1999/02/22-rdf-syntax-ns#">
      <rdf:Description rdf:about=""/>
   </rdf:RDF>
</x:xmpmeta>
                                                                                                    
                                                                                                    
                                                                                                    
                                                                                                    
                                                                                                    
                                                                                                    
                                                                                                    
                                                                                                    
                                                                                                    
                                                                                                    
                                                                                                    
                                                                                                    
                                                                                                    
                                                                                                    
                                                                                                    
                                                                                                    
                                                                                                    
                                                                                                    
                                                                                                    
                                                                                                    
                           
<?xpacket end="w"?></metadata>
<defs>
    <style>
      .cls-1 {
        fill: #0089fe;
        fill-rule: evenodd;
      }
    </style>
  </defs>
  <path id="提示icon_拷贝" data-name="提示icon 拷贝" class="cls-1" d="M680.131,454.08q1.2,0,1.7-1.7A0.4,0.4,0,0,0,681.5,452a0.977,0.977,0,0,1-.492-0.93v-2.68c0-.765-0.459-0.392-1.006-0.392-0.146,0,.219-0.145,0,0h0a4.344,4.344,0,0,0-1.181-.045,0.161,0.161,0,0,1-.11.054,0.155,0.155,0,0,1-.109.055,1.113,1.113,0,0,0-.766.711,0.725,0.725,0,0,0,.383.492A1.55,1.55,0,0,1,679,450v2h0c0.109,1.167.292,2.08,1.131,2.08h0Zm-1.422-8.75a1.26,1.26,0,0,0,1.258,1.257,1.355,1.355,0,0,0,1.313-1.312,1.242,1.242,0,0,0-1.313-1.258,1.2,1.2,0,0,0-1.258,1.313h0ZM680,457a8,8,0,1,1,8-8A8.009,8.009,0,0,1,680,457Zm0-15a7,7,0,1,0,7,7A7.008,7.008,0,0,0,680,442Z" transform="translate(-672 -441)"/>
</svg>
