<svg xmlns="http://www.w3.org/2000/svg" width="19.625" height="24.063" viewBox="0 0 19.625 24.063">
  <metadata><?xpacket begin="﻿" id="W5M0MpCehiHzreSzNTczkc9d"?>
<x:xmpmeta xmlns:x="adobe:ns:meta/" x:xmptk="Adobe XMP Core 5.6-c142 79.160924, 2017/07/13-01:06:39        ">
   <rdf:RDF xmlns:rdf="http://www.w3.org/1999/02/22-rdf-syntax-ns#">
      <rdf:Description rdf:about=""/>
   </rdf:RDF>
</x:xmpmeta>
                                                                                                    
                                                                                                    
                                                                                                    
                                                                                                    
                                                                                                    
                                                                                                    
                                                                                                    
                                                                                                    
                                                                                                    
                                                                                                    
                                                                                                    
                                                                                                    
                                                                                                    
                                                                                                    
                                                                                                    
                                                                                                    
                                                                                                    
                                                                                                    
                                                                                                    
                                                                                                    
                           
<?xpacket end="w"?></metadata>
<defs>
    <style>
      .cls-1 {
        fill: #a0a0a0;
        fill-rule: evenodd;
      }
    </style>
  </defs>
  <path id="形状_14" data-name="形状 14" class="cls-1" d="M435.5,521.967a5.323,5.323,0,0,1-2.643-2.728,5.5,5.5,0,0,1-.371-2.8,4.765,4.765,0,0,1,.955-2.421,5.834,5.834,0,0,1,1.478-1.337c0.137-.089.138-0.091,0.04-0.227a5.3,5.3,0,0,0-.666-0.761,5.839,5.839,0,0,0-3.733-1.518,5.426,5.426,0,0,0-2.122.332c-0.578.193-1.156,0.392-1.724,0.615a1.941,1.941,0,0,1-1.434.01c-0.578-.208-1.147-0.444-1.735-0.624a4.79,4.79,0,0,0-1.774-.264,5.546,5.546,0,0,0-1.525.311,6.11,6.11,0,0,0-3.644,3.637,8.327,8.327,0,0,0-.563,3.306,10.2,10.2,0,0,0,.12,1.692,15.145,15.145,0,0,0,3.245,7.374,6.855,6.855,0,0,0,1.414,1.391,2.553,2.553,0,0,0,2.2.415,9.107,9.107,0,0,0,1.213-.41,5.718,5.718,0,0,1,1.863-.458,5.111,5.111,0,0,1,2.266.453,7.744,7.744,0,0,0,1.181.391,2.8,2.8,0,0,0,2.286-.4,5.118,5.118,0,0,0,1.069-.977,14.287,14.287,0,0,0,2.715-4.723c0.064-.193.066-0.19-0.114-0.279h0Zm0,0-9.563-12a3.756,3.756,0,0,0,1.8-.352,4.91,4.91,0,0,0,1.742-1.443,5.2,5.2,0,0,0,1.2-3.293c0-.081,0-0.162,0-0.244,0-.26-0.025-0.27-0.286-0.236a5.17,5.17,0,0,0-1.747.591,5.41,5.41,0,0,0-2.627,3.068,4.116,4.116,0,0,0-.217,1.79,0.113,0.113,0,0,0,.131.119h0Zm0,0" transform="translate(-416.031 -504.406)"/>
</svg>
