<?xml version="1.0" encoding="utf-8"?>
<!-- Generator: Adobe Illustrator 21.0.0, SVG Export Plug-In . SVG Version: 6.00 Build 0)  -->
<svg version="1.1" id="图层_1" xmlns="http://www.w3.org/2000/svg" xmlns:xlink="http://www.w3.org/1999/xlink" x="0px" y="0px"
	 viewBox="0 0 190 40" style="enable-background:new 0 0 190 40;" xml:space="preserve">
<style type="text/css">
	.st0{fill:url(#XMLID_2_);}
	.st1{fill:#0089FE;}
	.st2{fill:url(#XMLID_3_);}
	.st3{fill:url(#XMLID_4_);}
	.st4{fill:url(#XMLID_5_);}
	.st5{fill:url(#XMLID_6_);}
	.st6{fill:url(#XMLID_7_);}
	.st7{fill:url(#XMLID_8_);}
	.st8{fill:url(#XMLID_9_);}
	.st9{fill:url(#XMLID_10_);}
	.st10{fill:#0082E8;}
</style>
<linearGradient id="XMLID_2_" gradientUnits="userSpaceOnUse" x1="3.0702" y1="35.1337" x2="18.0246" y2="47.438" gradientTransform="matrix(1 0 0 -1 0 42)">
	<stop  offset="0" style="stop-color:#55A2FF"/>
	<stop  offset="0.4236" style="stop-color:#C6D2EB"/>
	<stop  offset="0.6203" style="stop-color:#D9E1F2"/>
	<stop  offset="1" style="stop-color:#FFFFFF"/>
</linearGradient>
<path id="XMLID_416_" class="st0" d="M9.7,5.2c0-2.6-2.1-4.6-4.6-4.6c-1.7,0-3.2,0.9-4,2.3C1.8,2.3,2.7,2,3.7,2
	c2.6,0,4.6,2.1,4.6,4.6c0,0.9-0.2,1.7-0.6,2.4C8.9,8.2,9.7,6.8,9.7,5.2z"/>
<path id="XMLID_448_" class="st1" d="M3.7,2c-1,0-1.9,0.3-2.6,0.8C0.7,3.5,0.4,4.3,0.4,5.2c0,2.6,2.1,4.6,4.6,4.6
	c1,0,1.9-0.3,2.6-0.8C8,8.3,8.2,7.5,8.2,6.6C8.3,4.1,6.2,2,3.7,2z"/>
<linearGradient id="XMLID_3_" gradientUnits="userSpaceOnUse" x1="4.4688" y1="16.5673" x2="24.8" y2="16.5673" gradientTransform="matrix(1 0 0 -1 0 42)">
	<stop  offset="0.1636" style="stop-color:#008AF0"/>
	<stop  offset="0.6395" style="stop-color:#2656B9;stop-opacity:0.86"/>
	<stop  offset="1" style="stop-color:#0089FE;stop-opacity:0.86"/>
</linearGradient>
<path id="XMLID_415_" class="st2" d="M22.2,21.7c0.3,3.5,0.5,6.4-0.4,10.3c-0.9,4.2-2.5,1.5-2.5,1.5l-0.9-2.2L11.6,14
	c-0.8-2-2.7-3-4.6-2.6c-2.1,1.1-3.1,3.7-2.2,6l7.6,19.1c1,2.5,3.8,3.7,6.3,2.7l0,0c0.6-0.2,1.2-0.6,1.6-1.1l0,0
	c3.2-3.1,4.2-7.9,4.5-10L22.2,21.7z"/>
<linearGradient id="XMLID_4_" gradientUnits="userSpaceOnUse" x1="-1.103" y1="36.403" x2="23.3941" y2="11.9059" gradientTransform="matrix(1 0 0 -1 0 42)">
	<stop  offset="0" style="stop-color:#6AB6FF"/>
	<stop  offset="0.4236" style="stop-color:#C6D2EB"/>
	<stop  offset="1" style="stop-color:#3F9CFF"/>
</linearGradient>
<path id="XMLID_443_" class="st3" d="M11.5,13.8l6.8,17.3l0.9,2.2c0,0,1.6,2.7,2.5-1.5c0.9-3.8,0.7-6.7,0.4-10.3L22,21.2
	c0.1,6.5-1,9.6-1.4,10.6l-7.2-18.3C12.5,11.2,9.8,10,7.5,11c-0.2,0.1-0.4,0.2-0.5,0.2C8.9,11,10.8,12,11.5,13.8z"/>
<linearGradient id="XMLID_5_" gradientUnits="userSpaceOnUse" x1="53.6856" y1="14.0967" x2="77.2531" y2="38.9418" gradientTransform="matrix(1 0 0 -1 0 42)">
	<stop  offset="0" style="stop-color:#1593FF"/>
	<stop  offset="0.4236" style="stop-color:#C6D2EB"/>
	<stop  offset="1" style="stop-color:#3F9CFF"/>
</linearGradient>
<path id="XMLID_388_" class="st4" d="M53.4,14.4c-1.1,0-2.2,0.2-3.3,0.4c0.1,0,0.3,0,0.4,0c7.4,0,13.3,6,13.3,13.3
	c0,2.9-0.9,5.5-2.4,7.7c0.2,0.1,0.4,0.1,0.6,0.2c2.4-2.3,3.9-5.5,3.9-9.1C66,20,60.4,14.4,53.4,14.4z"/>
<linearGradient id="XMLID_6_" gradientUnits="userSpaceOnUse" x1="61.8798" y1="9.6213" x2="50.5059" y2="25.0198" gradientTransform="matrix(1 0 0 -1 0 42)">
	<stop  offset="0" style="stop-color:#008CF4"/>
	<stop  offset="1" style="stop-color:#2753B8;stop-opacity:0.86"/>
</linearGradient>
<path id="XMLID_450_" class="st5" d="M50.6,14.8c-0.1,0-0.3,0-0.4,0c-1.5,0.4-2.9,1.1-4.1,2l4.4,11.1c-0.1-0.3-0.2-0.6-0.2-1
	c0-1.7,1.4-3.1,3.1-3.1s3.1,1.4,3.1,3.1S55.1,30,53.4,30c-1.3,0-2.3-0.7-2.8-1.8l0,0c0,0,2.1,5.4,10.9,7.6c1.5-2.2,2.4-4.8,2.4-7.7
	C63.9,20.8,58,14.8,50.6,14.8z"/>
<linearGradient id="XMLID_7_" gradientUnits="userSpaceOnUse" x1="14.0127" y1="36.659" x2="43.2595" y2="7.4122" gradientTransform="matrix(1 0 0 -1 0 42)">
	<stop  offset="0" style="stop-color:#6AB6FF"/>
	<stop  offset="0.4236" style="stop-color:#C6D2EB"/>
	<stop  offset="1" style="stop-color:#3F9CFF"/>
</linearGradient>
<path id="XMLID_80_" class="st6" d="M27.1,13.8l7.5,19c2.2,5,7.3,2,7.6-0.4l0,0l-0.1-0.2c0,0-2.6,3.1-5.2,0.7
	c-0.2-0.1-0.3-0.4-0.4-0.7l-7.3-18.6c-0.9-2.3-3.6-3.5-5.9-2.5l0,0c-0.2,0.1-0.3,0.1-0.5,0.2C24.6,11.1,26.4,12.1,27.1,13.8z"/>
<linearGradient id="XMLID_8_" gradientUnits="userSpaceOnUse" x1="20.1698" y1="16.4764" x2="43.8601" y2="16.4764" gradientTransform="matrix(1 0 0 -1 0 42)">
	<stop  offset="0.1636" style="stop-color:#008AF0"/>
	<stop  offset="0.6395" style="stop-color:#2656B9;stop-opacity:0.86"/>
	<stop  offset="1" style="stop-color:#0089FE;stop-opacity:0.86"/>
</linearGradient>
<path id="XMLID_151_" class="st7" d="M42.2,32.5c-0.3,2.3-5.4,5.3-7.6,0.4l-7.5-19c-0.7-1.8-2.5-2.8-4.4-2.5h-0.1
	c-2.1,1.2-3.1,3.7-2.2,6l1.6,4l2.7,6.9l2.3,5.9l0,0l0,0c0,0,1.7,5.5,9,5.5c6.3,0,7.3-5.1,7.3-5.1L42.2,32.5z"/>
<linearGradient id="XMLID_9_" gradientUnits="userSpaceOnUse" x1="25.1367" y1="37.6374" x2="64.8889" y2="5.4571" gradientTransform="matrix(1 0 0 -1 0 42)">
	<stop  offset="0" style="stop-color:#6AB6FF"/>
	<stop  offset="0.4236" style="stop-color:#C6D2EB"/>
	<stop  offset="1" style="stop-color:#3F9CFF"/>
</linearGradient>
<path id="XMLID_79_" class="st8" d="M42.9,14L49,29.6c2.2,5,9.3,8.8,12.5,6.2c-8.7-2.2-10.8-7.6-10.8-7.6l0,0c0-0.1-0.1-0.2-0.1-0.3
	l-4.4-11.1l0,0L45,13.7c-0.9-2.3-3.6-3.5-5.9-2.5l0,0c-0.2,0.1-0.3,0.1-0.5,0.2C40.4,11.1,42.2,12.2,42.9,14z"/>
<linearGradient id="XMLID_10_" gradientUnits="userSpaceOnUse" x1="35.8732" y1="16.5137" x2="62.1279" y2="16.5137" gradientTransform="matrix(1 0 0 -1 0 42)">
	<stop  offset="0.1636" style="stop-color:#008AF0"/>
	<stop  offset="0.6395" style="stop-color:#2656B9;stop-opacity:0.86"/>
	<stop  offset="1" style="stop-color:#0089FE;stop-opacity:0.86"/>
</linearGradient>
<path id="XMLID_150_" class="st9" d="M61.7,35.9c-0.1,0-0.1,0-0.2,0c-3.2,2.6-10.3-1.2-12.5-6.2l-6.2-15.8c-0.7-1.8-2.5-2.7-4.3-2.5
	c-0.1,0-0.2,0.1-0.2,0.1c-2,1.2-2.9,3.7-2,6l5.3,13.4l0,0c0.2,0.6,0.4,1.1,0.7,1.7l-0.1-0.2l1.4,2.2l0,0c2.3,3,5.9,5,10,5
	c3.4,0,6.4-1.3,8.7-3.5C62,36,61.8,35.9,61.7,35.9z"/>
<g id="XMLID_496_">
	<path id="XMLID_516_" class="st10" d="M79.2,20.9H76v-2.6h3.2V20.9z M79.2,32.8H76V22.5h3.2V32.8z"/>
	<path id="XMLID_514_" class="st10" d="M84.8,32.8h-3.2V18.3h3.2v5.9h6.5v-5.9h3.2v14.5h-3.2v-6.5h-6.5V32.8z"/>
	<path id="XMLID_512_" class="st10" d="M96.8,22.5h3.2v6.1c0,1.7,0.7,2.5,2.2,2.5h1.8v-8.6h3.2V33h-6.1c-3,0.1-4.4-1.3-4.3-4.2
		C96.8,28.8,96.8,22.5,96.8,22.5z"/>
	<path id="XMLID_509_" class="st10" d="M114.5,33.1h-5.1V17.3h3.2v4.9h1.8c3.9,0,5.8,1.8,5.8,5.5C120.4,31.3,118.5,33.1,114.5,33.1z
		 M113.9,24.3h-1.1v6.8h1.2c2.1,0,3.2-1.1,3.2-3.3C117.1,25.4,116.1,24.3,113.9,24.3z"/>
	<path id="XMLID_506_" class="st10" d="M125.1,24.9v-1.7c-1,0.4-2.1,0.8-3.4,1.1v-1.8c2.8-1.1,4.8-2.8,6.1-5h3.6
		c1.3,2.2,3.3,3.9,6.1,5v1.8c-1.3-0.4-2.4-0.7-3.3-1v1.6h-3v1.7h4.3v2h-4.3v2.2h5.8v1.9h-14.8v-1.9h5.8v-2.2h-4.2v-2h4.2v-1.7H125.1
		z M129.6,20.3c-1.2,1.1-2.5,2-3.9,2.6h7.8C132.1,22.3,130.8,21.4,129.6,20.3z"/>
	<path id="XMLID_503_" class="st10" d="M139.5,20.3v-2h14.8v2h-9.7l-0.2,1.5h8.6l-0.5,9h2.4v1.9h-15.7v-1.9h10.4l0.1-1.7h-8.9
		l0.9-8.8H139.5z M149.9,23.7h-5.7l-0.4,3.4h5.9L149.9,23.7z"/>
	<path id="XMLID_500_" class="st10" d="M156.3,24.5v-1.9h7.6v1.9H161c-0.4,1.9-1.2,3.5-2.2,4.8c0.9,0,1.8,0,2.6-0.1
		c-0.1-0.4-0.3-1.2-0.5-2.2c-0.1-0.4-0.2-0.6-0.2-0.8h2.1c0.4,1.3,0.8,2.6,1.1,4.1c0.8-1.5,1.2-4.4,1.2-8.6H164v-1.9h1.1v-2.1h2.7
		v1.5v0.6h3.9v10.7c0,1.7-0.8,2.5-2.4,2.5h-2v-1.8h1c0.4,0,0.7-0.2,0.7-0.7v-8.8h-1.3c0,3.3-0.4,5.8-0.9,7.3s-1.6,3-3.2,4.4v-1.8
		h-1.8c0-0.1-0.1-0.3-0.1-0.5c-1.4,0.2-3.2,0.3-5.3,0.3v-2.1c0.9-1.6,1.5-3.2,1.8-4.8H156.3z M157.1,20.5v-1.9h6.3v1.9H157.1z"/>
	<path id="XMLID_497_" class="st10" d="M173.6,25.2v-2h15.5v2h-7.8c-0.9,1.9-2.1,3.5-3.6,4.8c2.9,0,5.4-0.1,7.4-0.3
		c-0.1-0.3-0.3-0.8-0.6-1.4c-0.1-0.3-0.2-0.5-0.3-0.7h2.6c0.9,1.5,1.5,3.2,2,5.1H186c0-0.4-0.1-0.8-0.3-1.1
		c-3.4,0.4-6.6,0.6-9.6,0.6h-1.4V30c1.5-1.6,2.5-3.2,3-4.8H173.6z M174.9,18.4h12.9v2h-12.9V18.4z"/>
</g>
</svg>
