<svg xmlns="http://www.w3.org/2000/svg" xmlns:xlink="http://www.w3.org/1999/xlink" width="18" height="18" viewBox="0 0 18 18">
  <metadata><?xpacket begin="﻿" id="W5M0MpCehiHzreSzNTczkc9d"?>
<x:xmpmeta xmlns:x="adobe:ns:meta/" x:xmptk="Adobe XMP Core 5.6-c142 79.160924, 2017/07/13-01:06:39        ">
   <rdf:RDF xmlns:rdf="http://www.w3.org/1999/02/22-rdf-syntax-ns#">
      <rdf:Description rdf:about=""/>
   </rdf:RDF>
</x:xmpmeta>
                                                                                                    
                                                                                                    
                                                                                                    
                                                                                                    
                                                                                                    
                                                                                                    
                                                                                                    
                                                                                                    
                                                                                                    
                                                                                                    
                                                                                                    
                                                                                                    
                                                                                                    
                                                                                                    
                                                                                                    
                                                                                                    
                                                                                                    
                                                                                                    
                                                                                                    
                                                                                                    
                           
<?xpacket end="w"?></metadata>
<defs>
    <style>
      .cls-1 {
        fill: #1986ff;
        fill-rule: evenodd;
        filter: url(#filter);
      }
    </style>
    <filter id="filter" x="35" y="189" width="18" height="18" filterUnits="userSpaceOnUse">
      <feFlood result="flood" flood-color="#888"/>
      <feComposite result="composite" operator="in" in2="SourceGraphic"/>
      <feBlend result="blend" in2="SourceGraphic"/>
    </filter>
  </defs>
  <path id="模板" class="cls-1" d="M36,189H52a1,1,0,0,1,1,1v2a1,1,0,0,1-1,1H36a1,1,0,0,1-1-1v-2A1,1,0,0,1,36,189Zm0,6h5a1,1,0,0,1,0,2H36A1,1,0,0,1,36,195Zm0,4h5a1,1,0,0,1,0,2H36A1,1,0,0,1,36,199Zm0,4h5a1,1,0,0,1,1,1v2a1,1,0,0,1-1,1H36a1,1,0,0,1-1-1v-2A1,1,0,0,1,36,203Zm9-8h7a1,1,0,0,1,1,1v6a1,1,0,0,1-1,1H45a1,1,0,0,1-1-1v-6A1,1,0,0,1,45,195Zm0,10h7a1,1,0,0,1,0,2H45A1,1,0,0,1,45,205Z" transform="translate(-35 -189)"/>
</svg>
