<svg xmlns="http://www.w3.org/2000/svg" width="26" height="32" viewBox="0 0 26 32">
  <metadata><?xpacket begin="﻿" id="W5M0MpCehiHzreSzNTczkc9d"?>
<x:xmpmeta xmlns:x="adobe:ns:meta/" x:xmptk="Adobe XMP Core 5.6-c138 79.159824, 2016/09/14-01:09:01        ">
   <rdf:RDF xmlns:rdf="http://www.w3.org/1999/02/22-rdf-syntax-ns#">
      <rdf:Description rdf:about=""/>
   </rdf:RDF>
</x:xmpmeta>
                                                                                                    
                                                                                                    
                                                                                                    
                                                                                                    
                                                                                                    
                                                                                                    
                                                                                                    
                                                                                                    
                                                                                                    
                                                                                                    
                                                                                                    
                                                                                                    
                                                                                                    
                                                                                                    
                                                                                                    
                                                                                                    
                                                                                                    
                                                                                                    
                                                                                                    
                                                                                                    
                           
<?xpacket end="w"?></metadata>
<defs>
    <style>
      .cls-1 {
        fill: #ddd;
        fill-rule: evenodd;
      }
    </style>
  </defs>
  <path id="圆角矩形_9_拷贝" data-name="圆角矩形 9 拷贝" class="cls-1" d="M428,299a2,2,0,1,1,2,2A2,2,0,0,1,428,299Zm7,0a2,2,0,1,1,2,2A2,2,0,0,1,435,299Zm7,0a2,2,0,1,1,2,2A2,2,0,0,1,442,299Zm6-9.221a2.978,2.978,0,0,0-2-.779H428a3,3,0,0,0-3,3v14a3,3,0,0,0,3,3s0.9-.018,1.162,0c1.733,0.306,2.052,5.749,2.057,5.5,2.1-1.874,5.184-5.476,7.045-5.48C442.234,309.013,446,309,446,309a2.978,2.978,0,0,0,2-.779V312.9a4.988,4.988,0,0,1-1,.1h-8.878c-1.235-.1-5.188,5.414-8.122,5-2.083-.078-2-5.022-1.979-5H427a5,5,0,0,1-5-5V291a5,5,0,0,1,5-5h20a4.988,4.988,0,0,1,1,.1v3.678Z" transform="translate(-422 -286)"/>
</svg>
