<svg id="_2" data-name="2" xmlns="http://www.w3.org/2000/svg" width="16.281" height="16" viewBox="0 0 16.281 16">
  <metadata><?xpacket begin="﻿" id="W5M0MpCehiHzreSzNTczkc9d"?>
<x:xmpmeta xmlns:x="adobe:ns:meta/" x:xmptk="Adobe XMP Core 5.6-c138 79.159824, 2016/09/14-01:09:01        ">
   <rdf:RDF xmlns:rdf="http://www.w3.org/1999/02/22-rdf-syntax-ns#">
      <rdf:Description rdf:about=""/>
   </rdf:RDF>
</x:xmpmeta>
                                                                                                    
                                                                                                    
                                                                                                    
                                                                                                    
                                                                                                    
                                                                                                    
                                                                                                    
                                                                                                    
                                                                                                    
                                                                                                    
                                                                                                    
                                                                                                    
                                                                                                    
                                                                                                    
                                                                                                    
                                                                                                    
                                                                                                    
                                                                                                    
                                                                                                    
                                                                                                    
                           
<?xpacket end="w"?></metadata>
<defs>
    <style>
      .cls-1 {
        fill: #eaeaea;
      }

      .cls-2 {
        fill: #1ebae5;
        fill-rule: evenodd;
      }
    </style>
  </defs>
  <circle id="椭圆_2_拷贝_10" data-name="椭圆 2 拷贝 10" class="cls-1" cx="8" cy="8" r="8"/>
  <path id="_1_2_3_4_5_拷贝_4" data-name="1 2 3 4 5 拷贝 4" class="cls-2" d="M299.12,799.625a1.219,1.219,0,0,1,.85.234,0.892,0.892,0,0,1,.195.645V802.8a0.848,0.848,0,0,1-1.045.849h-3.173a2.8,2.8,0,0,0-2.159.791,2.323,2.323,0,0,0-.605,1.621V809.9a2.69,2.69,0,0,0,1.143,2.354,2.938,2.938,0,0,0,1.621.352h6.328V810.68h-6.211a0.814,0.814,0,0,1-.84-0.987v-3.281a0.774,0.774,0,0,1,.254-0.6,1.025,1.025,0,0,1,.723-0.244h3.261a2.918,2.918,0,0,0,2.129-.762,2.442,2.442,0,0,0,.615-1.816v-3.018a2.168,2.168,0,0,0-.673-1.582,2.623,2.623,0,0,0-1.924-.693h-6.143v1.924h5.654Z" transform="translate(-286 -797)"/>
</svg>
