<svg id="_3" data-name="3" xmlns="http://www.w3.org/2000/svg" width="16.094" height="16" viewBox="0 0 16.094 16">
  <metadata><?xpacket begin="﻿" id="W5M0MpCehiHzreSzNTczkc9d"?>
<x:xmpmeta xmlns:x="adobe:ns:meta/" x:xmptk="Adobe XMP Core 5.6-c138 79.159824, 2016/09/14-01:09:01        ">
   <rdf:RDF xmlns:rdf="http://www.w3.org/1999/02/22-rdf-syntax-ns#">
      <rdf:Description rdf:about=""/>
   </rdf:RDF>
</x:xmpmeta>
                                                                                                    
                                                                                                    
                                                                                                    
                                                                                                    
                                                                                                    
                                                                                                    
                                                                                                    
                                                                                                    
                                                                                                    
                                                                                                    
                                                                                                    
                                                                                                    
                                                                                                    
                                                                                                    
                                                                                                    
                                                                                                    
                                                                                                    
                                                                                                    
                                                                                                    
                                                                                                    
                           
<?xpacket end="w"?></metadata>
<defs>
    <style>
      .cls-1 {
        fill: #eaeaea;
      }

      .cls-2 {
        fill: #fb9536;
        fill-rule: evenodd;
      }
    </style>
  </defs>
  <circle id="椭圆_2_拷贝_9" data-name="椭圆 2 拷贝 9" class="cls-1" cx="8" cy="8" r="8"/>
  <path id="_1_2_3_4_5_拷贝_5" data-name="1 2 3 4 5 拷贝 5" class="cls-2" d="M293.456,859.383a2.575,2.575,0,0,0,2.413,1.23h3.916a2.365,2.365,0,0,0,1.66-.742,2.227,2.227,0,0,0,.664-1.67v-4.014a2.7,2.7,0,0,0-.44-1.308,2.729,2.729,0,0,0,.43-1.4v-3.339a2.314,2.314,0,0,0-.684-1.739,2.806,2.806,0,0,0-2.021-.683h-3.662a2.537,2.537,0,0,0-1.8.634,2.271,2.271,0,0,0-.811,1.7c0,0.11.007,0.241,0.02,0.39H295.1a0.871,0.871,0,0,1,.879-0.8H299.1a0.847,0.847,0,0,1,.957.958v2.607q0,0.732-1.025.732h-4.014v1.924h4.121a0.792,0.792,0,0,1,.928.86v3.242q0,0.723-.967.722h-3.184a0.866,0.866,0,0,1-.888-0.683H293.1a2.992,2.992,0,0,0,.361,1.377h0Z" transform="translate(-286 -845)"/>
</svg>
