<svg id="_5" data-name="5" xmlns="http://www.w3.org/2000/svg" width="16.25" height="16" viewBox="0 0 16.25 16">
  <metadata><?xpacket begin="﻿" id="W5M0MpCehiHzreSzNTczkc9d"?>
<x:xmpmeta xmlns:x="adobe:ns:meta/" x:xmptk="Adobe XMP Core 5.6-c138 79.159824, 2016/09/14-01:09:01        ">
   <rdf:RDF xmlns:rdf="http://www.w3.org/1999/02/22-rdf-syntax-ns#">
      <rdf:Description rdf:about=""/>
   </rdf:RDF>
</x:xmpmeta>
                                                                                                    
                                                                                                    
                                                                                                    
                                                                                                    
                                                                                                    
                                                                                                    
                                                                                                    
                                                                                                    
                                                                                                    
                                                                                                    
                                                                                                    
                                                                                                    
                                                                                                    
                                                                                                    
                                                                                                    
                                                                                                    
                                                                                                    
                                                                                                    
                                                                                                    
                                                                                                    
                           
<?xpacket end="w"?></metadata>
<defs>
    <style>
      .cls-1 {
        fill: #eaeaea;
      }

      .cls-2 {
        fill: #888;
        fill-rule: evenodd;
      }
    </style>
  </defs>
  <circle id="椭圆_2_拷贝_7" data-name="椭圆 2 拷贝 7" class="cls-1" cx="8" cy="8" r="8"/>
  <path id="_1_2_3_4_5_拷贝_7" data-name="1 2 3 4 5 拷贝 7" class="cls-2" d="M295.7,941.73a2.609,2.609,0,0,0-1.865.723,2.374,2.374,0,0,0-.683,1.816v3.067a2.385,2.385,0,0,0,.605,1.748,2.763,2.763,0,0,0,2.07.81h3.438a0.818,0.818,0,0,1,.889.958v2.812a0.872,0.872,0,0,1-.889,1.065h-5.879v1.923h6.436a2.6,2.6,0,0,0,1.709-.6,2,2,0,0,0,.664-1.651v-4.033a2.178,2.178,0,0,0-.655-1.582,2.879,2.879,0,0,0-2.129-.82h-3.2a1.051,1.051,0,0,1-.742-0.245,0.827,0.827,0,0,1-.273-0.615v-2.48a1.041,1.041,0,0,1,.263-0.781,1.1,1.1,0,0,1,.752-0.2h6.026V941.73H295.7Z" transform="translate(-286 -941)"/>
</svg>
