<svg id="用户数icon" xmlns="http://www.w3.org/2000/svg" width="24" height="24" viewBox="0 0 24 24">
  <metadata><?xpacket begin="﻿" id="W5M0MpCehiHzreSzNTczkc9d"?>
<x:xmpmeta xmlns:x="adobe:ns:meta/" x:xmptk="Adobe XMP Core 5.6-c142 79.160924, 2017/07/13-01:06:39        ">
   <rdf:RDF xmlns:rdf="http://www.w3.org/1999/02/22-rdf-syntax-ns#">
      <rdf:Description rdf:about=""/>
   </rdf:RDF>
</x:xmpmeta>
                                                                                                    
                                                                                                    
                                                                                                    
                                                                                                    
                                                                                                    
                                                                                                    
                                                                                                    
                                                                                                    
                                                                                                    
                                                                                                    
                                                                                                    
                                                                                                    
                                                                                                    
                                                                                                    
                                                                                                    
                                                                                                    
                                                                                                    
                                                                                                    
                                                                                                    
                                                                                                    
                           
<?xpacket end="w"?></metadata>
<defs>
    <style>
      .cls-1 {
        fill: #888;
      }

      .cls-2, .cls-3 {
        fill: #fff;
      }

      .cls-3 {
        fill-rule: evenodd;
      }
    </style>
  </defs>
  <circle id="椭圆_1_拷贝_2" data-name="椭圆 1 拷贝 2" class="cls-1" cx="12" cy="12" r="12"/>
  <circle id="椭圆_2_拷贝" data-name="椭圆 2 拷贝" class="cls-2" cx="14" cy="6.672" r="2.719"/>
  <path id="椭圆_3_拷贝" data-name="椭圆 3 拷贝" class="cls-3" d="M934,704.357c3.314,0,6,4.213,6,7.236,0,1.73-2.686,2.407-6,2.407s-6-.755-6-2.407C928,708.57,930.686,704.357,934,704.357Z" transform="translate(-920 -695)"/>
  <path id="椭圆_3_拷贝_2" data-name="椭圆 3 拷贝 2" class="cls-3" d="M929,699c1.255,0,1.551.745,1,1a1.331,1.331,0,0,0-1,1c-0.486,1.273.178,2.643,0,2.643A2.322,2.322,0,0,1,929,699Zm0,4.643a2.7,2.7,0,0,1,1.3.272A11.218,11.218,0,0,0,927,707c-1.567,2.194-.277,5.14-1,5-1.524-.294-2-1.115-2-2.086C924,707.294,926.239,703.643,929,703.643Z" transform="translate(-920 -695)"/>
</svg>
