<svg xmlns="http://www.w3.org/2000/svg" width="24" height="24" viewBox="0 0 24 24">
  <metadata><?xpacket begin="﻿" id="W5M0MpCehiHzreSzNTczkc9d"?>
<x:xmpmeta xmlns:x="adobe:ns:meta/" x:xmptk="Adobe XMP Core 5.6-c142 79.160924, 2017/07/13-01:06:39        ">
   <rdf:RDF xmlns:rdf="http://www.w3.org/1999/02/22-rdf-syntax-ns#">
      <rdf:Description rdf:about=""/>
   </rdf:RDF>
</x:xmpmeta>
                                                                                                    
                                                                                                    
                                                                                                    
                                                                                                    
                                                                                                    
                                                                                                    
                                                                                                    
                                                                                                    
                                                                                                    
                                                                                                    
                                                                                                    
                                                                                                    
                                                                                                    
                                                                                                    
                                                                                                    
                                                                                                    
                                                                                                    
                                                                                                    
                                                                                                    
                                                                                                    
                           
<?xpacket end="w"?></metadata>
<defs>
    <style>
      .cls-1 {
        fill: #888;
        fill-rule: evenodd;
      }
    </style>
  </defs>
  <path id="选色_拷贝_5" data-name="选色 拷贝 5" class="cls-1" d="M976,767a12,12,0,1,1-12,12A12,12,0,0,1,976,767Zm0,1a11,11,0,1,1-11,11A11,11,0,0,1,976,768Zm-0.8,14.647c1.6-.33,2.535,2.1,1.157,3.634C972.765,789.116,970,785,970,785a25.482,25.482,0,0,0,3.575-1.169C974.355,783.331,974.473,782.8,975.2,782.647Zm2.508,1.06-1.414-1.414,7-7,1.414,1.414ZM979.5,772a1.5,1.5,0,1,1-1.5,1.5A1.5,1.5,0,0,1,979.5,772Zm-5.5,0a2,2,0,1,1-2,2A2,2,0,0,1,974,772Zm-3.5,5a2.5,2.5,0,1,1-2.5,2.5A2.5,2.5,0,0,1,970.5,777Z" transform="translate(-964 -767)"/>
</svg>
