<svg xmlns="http://www.w3.org/2000/svg" width="22" height="22" viewBox="0 0 22 22">
  <metadata><?xpacket begin="﻿" id="W5M0MpCehiHzreSzNTczkc9d"?>
<x:xmpmeta xmlns:x="adobe:ns:meta/" x:xmptk="Adobe XMP Core 5.6-c142 79.160924, 2017/07/13-01:06:39        ">
   <rdf:RDF xmlns:rdf="http://www.w3.org/1999/02/22-rdf-syntax-ns#">
      <rdf:Description rdf:about=""/>
   </rdf:RDF>
</x:xmpmeta>
                                                                                                    
                                                                                                    
                                                                                                    
                                                                                                    
                                                                                                    
                                                                                                    
                                                                                                    
                                                                                                    
                                                                                                    
                                                                                                    
                                                                                                    
                                                                                                    
                                                                                                    
                                                                                                    
                                                                                                    
                                                                                                    
                                                                                                    
                                                                                                    
                                                                                                    
                                                                                                    
                           
<?xpacket end="w"?></metadata>
<defs>
    <style>
      .cls-1 {
        fill: #888;
        fill-rule: evenodd;
      }
    </style>
  </defs>
  <path id="设置icon" class="cls-1" d="M506.236,882.261h-1.165a8.338,8.338,0,0,1-.809,1.937l1.077,1.077a1.765,1.765,0,0,1,0,2.5l-0.624.623a1.764,1.764,0,0,1-2.495,0l-1.083-1.083a8.3,8.3,0,0,1-1.932.794v1.131A1.764,1.764,0,0,1,497.441,891h-0.882a1.765,1.765,0,0,1-1.765-1.764v-1.131a8.332,8.332,0,0,1-1.931-.794l-1.083,1.083a1.765,1.765,0,0,1-2.5,0l-0.623-.623a1.765,1.765,0,0,1,0-2.5l1.077-1.077a8.3,8.3,0,0,1-.809-1.937h-1.165A1.765,1.765,0,0,1,486,880.5v-0.882a1.764,1.764,0,0,1,1.764-1.764h1.151a8.332,8.332,0,0,1,.781-1.925l-1.035-1.035a1.764,1.764,0,0,1,0-2.5l0.623-.624a1.765,1.765,0,0,1,2.5,0l1.015,1.015a8.318,8.318,0,0,1,2-.836v-1.186A1.765,1.765,0,0,1,496.559,869h0.882a1.764,1.764,0,0,1,1.764,1.764v1.186a8.325,8.325,0,0,1,2,.836l1.015-1.015a1.764,1.764,0,0,1,2.495,0l0.624,0.624a1.764,1.764,0,0,1,0,2.5l-1.035,1.035a8.376,8.376,0,0,1,.781,1.925h1.151A1.764,1.764,0,0,1,508,879.614V880.5A1.765,1.765,0,0,1,506.236,882.261ZM497,875.23a4.853,4.853,0,1,0,4.852,4.853A4.852,4.852,0,0,0,497,875.23Zm0,7a2.206,2.206,0,1,1,2.2-2.206A2.206,2.206,0,0,1,497,882.233Z" transform="translate(-486 -869)"/>
</svg>
