<svg xmlns="http://www.w3.org/2000/svg" width="22" height="22" viewBox="0 0 22 22">
  <metadata><?xpacket begin="﻿" id="W5M0MpCehiHzreSzNTczkc9d"?>
<x:xmpmeta xmlns:x="adobe:ns:meta/" x:xmptk="Adobe XMP Core 5.6-c142 79.160924, 2017/07/13-01:06:39        ">
   <rdf:RDF xmlns:rdf="http://www.w3.org/1999/02/22-rdf-syntax-ns#">
      <rdf:Description rdf:about=""/>
   </rdf:RDF>
</x:xmpmeta>
                                                                                                    
                                                                                                    
                                                                                                    
                                                                                                    
                                                                                                    
                                                                                                    
                                                                                                    
                                                                                                    
                                                                                                    
                                                                                                    
                                                                                                    
                                                                                                    
                                                                                                    
                                                                                                    
                                                                                                    
                                                                                                    
                                                                                                    
                                                                                                    
                                                                                                    
                                                                                                    
                           
<?xpacket end="w"?></metadata>
<defs>
    <style>
      .cls-1 {
        fill: #0089fe;
        fill-rule: evenodd;
      }
    </style>
  </defs>
  <path id="设置icon" class="cls-1" d="M109.235,1508.26h-1.164a8.235,8.235,0,0,1-.809,1.94l1.077,1.08a1.758,1.758,0,0,1,0,2.49l-0.624.62a1.762,1.762,0,0,1-2.5,0l-1.083-1.08a8.627,8.627,0,0,1-1.932.8v1.13a1.763,1.763,0,0,1-1.764,1.76H99.559a1.764,1.764,0,0,1-1.764-1.76v-1.13a8.618,8.618,0,0,1-1.931-.8l-1.084,1.08a1.763,1.763,0,0,1-2.5,0l-0.624-.62a1.758,1.758,0,0,1,0-2.49l1.077-1.08a8.2,8.2,0,0,1-.808-1.94H90.764A1.764,1.764,0,0,1,89,1506.5v-0.89a1.764,1.764,0,0,1,1.764-1.76h1.151a8.105,8.105,0,0,1,.781-1.92l-1.035-1.04a1.77,1.77,0,0,1,0-2.5l0.624-.62a1.763,1.763,0,0,1,2.5,0l1.015,1.02a7.875,7.875,0,0,1,2-.84v-1.19a1.764,1.764,0,0,1,1.764-1.76h0.882a1.763,1.763,0,0,1,1.764,1.76v1.19a7.879,7.879,0,0,1,2,.84l1.015-1.02a1.762,1.762,0,0,1,2.5,0l0.624,0.62a1.77,1.77,0,0,1,0,2.5l-1.035,1.04a8.144,8.144,0,0,1,.781,1.92h1.15a1.764,1.764,0,0,1,1.765,1.76v0.89A1.764,1.764,0,0,1,109.235,1508.26ZM100,1501.23a4.85,4.85,0,1,0,4.852,4.85A4.85,4.85,0,0,0,100,1501.23Zm0,7a2.205,2.205,0,1,1,2.205-2.2A2.2,2.2,0,0,1,100,1508.23Z" transform="translate(-89 -1495)"/>
</svg>
