<svg xmlns="http://www.w3.org/2000/svg" width="22" height="18" viewBox="0 0 22 18">
  <metadata><?xpacket begin="﻿" id="W5M0MpCehiHzreSzNTczkc9d"?>
<x:xmpmeta xmlns:x="adobe:ns:meta/" x:xmptk="Adobe XMP Core 5.6-c142 79.160924, 2017/07/13-01:06:39        ">
   <rdf:RDF xmlns:rdf="http://www.w3.org/1999/02/22-rdf-syntax-ns#">
      <rdf:Description rdf:about=""/>
   </rdf:RDF>
</x:xmpmeta>
                                                                                                    
                                                                                                    
                                                                                                    
                                                                                                    
                                                                                                    
                                                                                                    
                                                                                                    
                                                                                                    
                                                                                                    
                                                                                                    
                                                                                                    
                                                                                                    
                                                                                                    
                                                                                                    
                                                                                                    
                                                                                                    
                                                                                                    
                                                                                                    
                                                                                                    
                                                                                                    
                           
<?xpacket end="w"?></metadata>
<defs>
    <style>
      .cls-1 {
        fill: #888;
        fill-rule: evenodd;
      }
    </style>
  </defs>
  <path id="待审备选_拷贝" data-name="待审备选 拷贝" class="cls-1" d="M55,129.5c0,3.038-2.462,4.5-5.5,4.5s-5.5-1.462-5.5-4.5,0.034-5.5,5.5-5.5c0.33,0,.639,0,0.931.012L50.417,124l-1.833-5-2.75-1v-2l4.583,1,3.145,7.549c1.1,0.549,1.359,1.582,1.42,3.407L55,128l-0.017-.015C55,128.44,55,128.943,55,129.5ZM49.5,126c-3.675,0-3.667,1.567-3.667,3.5S47.475,132,49.5,132s3.667-.567,3.667-2.5S53.1,126,49.5,126Zm0,1c2.594,0,2.5,2,2.5,2H47S46.911,127,49.5,127Zm-11,7c-3.038,0-5.5-1.462-5.5-4.5,0-.554,0-1.056.011-1.509L33,128l0.011-.027c0.045-1.861.281-2.9,1.437-3.449L37.583,117l4.583-1v2l-2.75,1-1.833,5-0.014.012C37.861,124,38.17,124,38.5,124c5.524,0,5.5,2.462,5.5,5.5S41.538,134,38.5,134Zm0-8c-3.675,0-3.667,1.567-3.667,3.5S36.475,132,38.5,132s3.667-.567,3.667-2.5S42.006,126,38.5,126Zm0,1c2.517,0,2.5,2,2.5,2H36S35.922,127,38.5,127Z" transform="translate(-33 -116)"/>
</svg>
