<svg xmlns="http://www.w3.org/2000/svg" xmlns:xlink="http://www.w3.org/1999/xlink" width="22" height="22" viewBox="0 0 22 22">
  <metadata><?xpacket begin="﻿" id="W5M0MpCehiHzreSzNTczkc9d"?>
<x:xmpmeta xmlns:x="adobe:ns:meta/" x:xmptk="Adobe XMP Core 5.6-c142 79.160924, 2017/07/13-01:06:39        ">
   <rdf:RDF xmlns:rdf="http://www.w3.org/1999/02/22-rdf-syntax-ns#">
      <rdf:Description rdf:about=""/>
   </rdf:RDF>
</x:xmpmeta>
                                                                                                    
                                                                                                    
                                                                                                    
                                                                                                    
                                                                                                    
                                                                                                    
                                                                                                    
                                                                                                    
                                                                                                    
                                                                                                    
                                                                                                    
                                                                                                    
                                                                                                    
                                                                                                    
                                                                                                    
                                                                                                    
                                                                                                    
                                                                                                    
                                                                                                    
                                                                                                    
                           
<?xpacket end="w"?></metadata>
<defs>
    <style>
      .cls-1 {
        fill: #1986ff;
        fill-rule: evenodd;
        filter: url(#filter);
      }
    </style>
    <filter id="filter" x="33" y="333" width="22" height="22" filterUnits="userSpaceOnUse">
      <feFlood result="flood" flood-color="#888"/>
      <feComposite result="composite" operator="in" in2="SourceGraphic"/>
      <feBlend result="blend" in2="SourceGraphic"/>
    </filter>
  </defs>
  <path id="数据" class="cls-1" d="M33,355v-2H55v2H33Zm3-16h2a1,1,0,0,1,1,1v11a1,1,0,0,1-1,1H36a1,1,0,0,1-1-1V340A1,1,0,0,1,36,339Zm7-6h2a1,1,0,0,1,1,1v17a1,1,0,0,1-1,1H43a1,1,0,0,1-1-1V334A1,1,0,0,1,43,333Zm7,10h2a1,1,0,0,1,1,1v7a1,1,0,0,1-1,1H50a1,1,0,0,1-1-1v-7A1,1,0,0,1,50,343Z" transform="translate(-33 -333)"/>
</svg>
