<svg xmlns="http://www.w3.org/2000/svg" width="14" height="13" viewBox="0 0 14 13">
  <metadata><?xpacket begin="﻿" id="W5M0MpCehiHzreSzNTczkc9d"?>
<x:xmpmeta xmlns:x="adobe:ns:meta/" x:xmptk="Adobe XMP Core 5.6-c142 79.160924, 2017/07/13-01:06:39        ">
   <rdf:RDF xmlns:rdf="http://www.w3.org/1999/02/22-rdf-syntax-ns#">
      <rdf:Description rdf:about=""/>
   </rdf:RDF>
</x:xmpmeta>
                                                                                                    
                                                                                                    
                                                                                                    
                                                                                                    
                                                                                                    
                                                                                                    
                                                                                                    
                                                                                                    
                                                                                                    
                                                                                                    
                                                                                                    
                                                                                                    
                                                                                                    
                                                                                                    
                                                                                                    
                                                                                                    
                                                                                                    
                                                                                                    
                                                                                                    
                                                                                                    
                           
<?xpacket end="w"?></metadata>
<defs>
    <style>
      .cls-1 {
        fill: #ddd;
        fill-rule: evenodd;
      }
    </style>
  </defs>
  <path id="日历icon" class="cls-1" d="M823.6,587H812.4a1.4,1.4,0,0,1-1.4-1.4v-9.2a1.4,1.4,0,0,1,1.4-1.4H814v-0.5a0.5,0.5,0,0,1,.5-0.5h1a0.5,0.5,0,0,1,.5.5V575h4v-0.5a0.5,0.5,0,0,1,.5-0.5h1a0.5,0.5,0,0,1,.5.5V575h1.6a1.4,1.4,0,0,1,1.4,1.4v9.2A1.4,1.4,0,0,1,823.6,587Zm-0.6-8.8a1.187,1.187,0,0,0-1-1.159V577.5a0.5,0.5,0,0,1-.5.5h-1a0.5,0.5,0,0,1-.5-0.5V577h-4v0.5a0.5,0.5,0,0,1-.5.5h-1a0.5,0.5,0,0,1-.5-0.5v-0.459a1.187,1.187,0,0,0-1,1.159v5.6a1.2,1.2,0,0,0,1.2,1.2h7.6a1.2,1.2,0,0,0,1.2-1.2v-5.6Zm-1.5,5.8h-1a0.5,0.5,0,0,1-.5-0.5v-1a0.5,0.5,0,0,1,.5-0.5h1a0.5,0.5,0,0,1,.5.5v1A0.5,0.5,0,0,1,821.5,584Zm0-3h-1a0.5,0.5,0,0,1-.5-0.5v-1a0.5,0.5,0,0,1,.5-0.5h1a0.5,0.5,0,0,1,.5.5v1A0.5,0.5,0,0,1,821.5,581Zm-3,3h-1a0.5,0.5,0,0,1-.5-0.5v-1a0.5,0.5,0,0,1,.5-0.5h1a0.5,0.5,0,0,1,.5.5v1A0.5,0.5,0,0,1,818.5,584Zm0-3h-1a0.5,0.5,0,0,1-.5-0.5v-1a0.5,0.5,0,0,1,.5-0.5h1a0.5,0.5,0,0,1,.5.5v1A0.5,0.5,0,0,1,818.5,581Zm-3,3h-1a0.5,0.5,0,0,1-.5-0.5v-1a0.5,0.5,0,0,1,.5-0.5h1a0.5,0.5,0,0,1,.5.5v1A0.5,0.5,0,0,1,815.5,584Zm0-3h-1a0.5,0.5,0,0,1-.5-0.5v-1a0.5,0.5,0,0,1,.5-0.5h1a0.5,0.5,0,0,1,.5.5v1A0.5,0.5,0,0,1,815.5,581Z" transform="translate(-811 -574)"/>
</svg>
