<svg xmlns="http://www.w3.org/2000/svg" width="22" height="22" viewBox="0 0 22 22">
  <metadata><?xpacket begin="﻿" id="W5M0MpCehiHzreSzNTczkc9d"?>
<x:xmpmeta xmlns:x="adobe:ns:meta/" x:xmptk="Adobe XMP Core 5.6-c142 79.160924, 2017/07/13-01:06:39        ">
   <rdf:RDF xmlns:rdf="http://www.w3.org/1999/02/22-rdf-syntax-ns#">
      <rdf:Description rdf:about=""/>
   </rdf:RDF>
</x:xmpmeta>
                                                                                                    
                                                                                                    
                                                                                                    
                                                                                                    
                                                                                                    
                                                                                                    
                                                                                                    
                                                                                                    
                                                                                                    
                                                                                                    
                                                                                                    
                                                                                                    
                                                                                                    
                                                                                                    
                                                                                                    
                                                                                                    
                                                                                                    
                                                                                                    
                                                                                                    
                                                                                                    
                           
<?xpacket end="w"?></metadata>
<defs>
    <style>
      .cls-1 {
        fill: #888;
        fill-rule: evenodd;
      }
    </style>
  </defs>
  <path id="已通过" class="cls-1" d="M44,209a11,11,0,1,1,11-11A11,11,0,0,1,44,209Zm4.424-18.823a8.986,8.986,0,0,0-8.836,0,8.289,8.289,0,0,0-3.364,3.322,8.99,8.99,0,0,0-.018,8.972,8.377,8.377,0,0,0,3.328,3.329,9.035,9.035,0,0,0,8.943,0,8.355,8.355,0,0,0,3.322-3.329,9.023,9.023,0,0,0-.018-8.972A8.267,8.267,0,0,0,48.424,190.177Zm-0.94,13.891a6.989,6.989,0,0,1-6.956,0,6.592,6.592,0,0,1-2.6-2.59,6.971,6.971,0,0,1,.018-6.978,6.492,6.492,0,0,1,2.617-2.589,6.971,6.971,0,0,1,6.873,0,6.43,6.43,0,0,1,1.772,1.419,0.987,0.987,0,0,0-.3.2l-6.153,6.153L39.78,196.7a1,1,0,0,0-1.414,1.414l3.536,3.536a0.974,0.974,0,0,0,.51.254,0.99,0.99,0,0,0,1.141-.182l6.737-6.737a6.917,6.917,0,0,1-.216,6.5A6.546,6.546,0,0,1,47.484,204.068Z" transform="translate(-33 -187)"/>
</svg>
