<svg xmlns="http://www.w3.org/2000/svg" width="25" height="32.031" viewBox="0 0 25 32.031">
  <metadata><?xpacket begin="﻿" id="W5M0MpCehiHzreSzNTczkc9d"?>
<x:xmpmeta xmlns:x="adobe:ns:meta/" x:xmptk="Adobe XMP Core 5.6-c138 79.159824, 2016/09/14-01:09:01        ">
   <rdf:RDF xmlns:rdf="http://www.w3.org/1999/02/22-rdf-syntax-ns#">
      <rdf:Description rdf:about=""/>
   </rdf:RDF>
</x:xmpmeta>
                                                                                                    
                                                                                                    
                                                                                                    
                                                                                                    
                                                                                                    
                                                                                                    
                                                                                                    
                                                                                                    
                                                                                                    
                                                                                                    
                                                                                                    
                                                                                                    
                                                                                                    
                                                                                                    
                                                                                                    
                                                                                                    
                                                                                                    
                                                                                                    
                                                                                                    
                                                                                                    
                           
<?xpacket end="w"?></metadata>
<defs>
    <style>
      .cls-1 {
        fill: #ddd;
        fill-rule: evenodd;
      }
    </style>
  </defs>
  <path id="形状_5_拷贝_3" data-name="形状 5 拷贝 3" class="cls-1" d="M1051,289h-21c-1.12,0-1,.864-1,2v22a2.684,2.684,0,0,0,.22,1.225c0.07-.318.16-0.666,0.28-1.059a12.553,12.553,0,0,1,1.86-3.7,12.323,12.323,0,0,1,2.72-2.727,11.977,11.977,0,0,1,2.23-1.293,8.033,8.033,0,0,1-2.03-2.423,8.256,8.256,0,0,1-1.01-3.957,7.819,7.819,0,1,1,15.63,0,8.2,8.2,0,0,1-1.19,4.267,8.079,8.079,0,0,1-1.88,2.129,12.236,12.236,0,0,1,2.28,1.311,12.549,12.549,0,0,1,2.71,2.724c0.07,0.087.12,0.179,0.18,0.269v8.246h-20.58c-2.66,0-4.42-2.324-4.42-5.016V291c0-2.692,1.76-4.988,4.42-4.988H1051V289Zm-5,9.993a5,5,0,1,0-5,5A5,5,0,0,0,1046,298.993Zm3.7,15.985c-0.12-.308-0.24-0.645-0.35-1.03a11.089,11.089,0,0,0-2.1-4.007,8.122,8.122,0,0,0-6.1-2.921,1.119,1.119,0,0,1-.34-0.029l-0.02,0a8.157,8.157,0,0,0-5.91,2.919,10.932,10.932,0,0,0-2.12,4.087,3.793,3.793,0,0,1-.46.985h17.4Z" transform="translate(-1026 -286)"/>
</svg>
