<svg xmlns="http://www.w3.org/2000/svg" width="14" height="12" viewBox="0 0 14 12">
  <metadata><?xpacket begin="﻿" id="W5M0MpCehiHzreSzNTczkc9d"?>
<x:xmpmeta xmlns:x="adobe:ns:meta/" x:xmptk="Adobe XMP Core 5.6-c138 79.159824, 2016/09/14-01:09:01        ">
   <rdf:RDF xmlns:rdf="http://www.w3.org/1999/02/22-rdf-syntax-ns#">
      <rdf:Description rdf:about=""/>
   </rdf:RDF>
</x:xmpmeta>
                                                                                                    
                                                                                                    
                                                                                                    
                                                                                                    
                                                                                                    
                                                                                                    
                                                                                                    
                                                                                                    
                                                                                                    
                                                                                                    
                                                                                                    
                                                                                                    
                                                                                                    
                                                                                                    
                                                                                                    
                                                                                                    
                                                                                                    
                                                                                                    
                                                                                                    
                                                                                                    
                           
<?xpacket end="w"?></metadata>
<defs>
    <style>
      .cls-1 {
        fill: #888;
      }

      .cls-1, .cls-2 {
        fill-rule: evenodd;
      }

      .cls-2 {
        fill: #ddd;
      }
    </style>
  </defs>
  <path id="上传视频" class="cls-1" d="M-23-6c0.184,0,32.818-.008,33,0C16.373-5.713,21-.444,21,6c0,6.471-4.589,11.754-11,12-0.155.006-32.843,0-33,0A12,12,0,0,1-35,6,12,12,0,0,1-23-6Zm0,1c0.132,0,32.869,0,33,0C15.893-4.793,20,.057,20,6S15.887,16.786,10,17c-0.135,0-32.864,0-33,0A11,11,0,0,1-34,6,11,11,0,0,1-23-5Zm-3,5h7a1,1,0,0,1,1,1,1,1,0,0,1-1,1h-7a1,1,0,0,1-1-1A1,1,0,0,1-26,0Zm8,1a1,1,0,0,1,1,1v8a1,1,0,0,1-1,1,1,1,0,0,1-1-1V2A1,1,0,0,1-18,1Zm-8,9h7a1,1,0,0,1,1,1,1,1,0,0,1-1,1h-7a1,1,0,0,1-1-1A1,1,0,0,1-26,10Zm-1-9a1,1,0,0,1,1,1v8a1,1,0,0,1-1,1,1,1,0,0,1-1-1V2A1,1,0,0,1-27,1Zm5,8a1.853,1.853,0,0,0,2,0V7c0.024,0.005.023,0.025,0,0V5a1.854,1.854,0,0,0-2,0V9Zm5-5,3-2a1.813,1.813,0,0,1,1,1V9a1.666,1.666,0,0,1-1,1l-3-2c-1.092-.6-2-0.9-2-2h0C-19,4.9-18,4.627-17,4Zm29,8H2a1.946,1.946,0,0,1-2-2V2A1.956,1.956,0,0,1,2,0H12a1.936,1.936,0,0,1,2,2v8A2,2,0,0,1,12,12ZM3,2H3v8h8V2H3ZM5,9A0.573,0.573,0,0,0,6,9l4-3c0.024,0.005.023,0.025,0,0L6,3A0.573,0.573,0,0,0,5,3V9Z"/>
  <path id="分隔" class="cls-2" d="M20-2h1V14H20V-2Z"/>
</svg>
