<svg xmlns="http://www.w3.org/2000/svg" width="24" height="24" viewBox="0 0 24 24">
  <metadata><?xpacket begin="﻿" id="W5M0MpCehiHzreSzNTczkc9d"?>
<x:xmpmeta xmlns:x="adobe:ns:meta/" x:xmptk="Adobe XMP Core 5.6-c142 79.160924, 2017/07/13-01:06:39        ">
   <rdf:RDF xmlns:rdf="http://www.w3.org/1999/02/22-rdf-syntax-ns#">
      <rdf:Description rdf:about=""/>
   </rdf:RDF>
</x:xmpmeta>
                                                                                                    
                                                                                                    
                                                                                                    
                                                                                                    
                                                                                                    
                                                                                                    
                                                                                                    
                                                                                                    
                                                                                                    
                                                                                                    
                                                                                                    
                                                                                                    
                                                                                                    
                                                                                                    
                                                                                                    
                                                                                                    
                                                                                                    
                                                                                                    
                                                                                                    
                                                                                                    
                           
<?xpacket end="w"?></metadata>
<defs>
    <style>
      .cls-1 {
        fill: #888;
        fill-rule: evenodd;
      }
    </style>
  </defs>
  <path id="上传视频" class="cls-1" d="M976,1148a12,12,0,1,1,12-12A12,12,0,0,1,976,1148Zm0-23a11,11,0,1,0,11,11A11,11,0,0,0,976,1125Zm7,15-3-2v2a1,1,0,0,1-1,1,1,1,0,0,1-1,1h-7a1,1,0,0,1-1-1,1,1,0,0,1-1-1v-8a1,1,0,0,1,1-1,1,1,0,0,1,1-1h7a1,1,0,0,1,1,1,1,1,0,0,1,1,1v2l3-2a1.812,1.812,0,0,1,1,1v6A1.653,1.653,0,0,1,983,1140Zm-5-8h-7v8h7v-8Zm-3,7v-4a1.856,1.856,0,0,1,2,0v4A1.856,1.856,0,0,1,975,1139Z" transform="translate(-964 -1124)"/>
</svg>
