<svg xmlns="http://www.w3.org/2000/svg" width="15" height="12" viewBox="0 0 15 12">
  <metadata><?xpacket begin="﻿" id="W5M0MpCehiHzreSzNTczkc9d"?>
<x:xmpmeta xmlns:x="adobe:ns:meta/" x:xmptk="Adobe XMP Core 5.6-c138 79.159824, 2016/09/14-01:09:01        ">
   <rdf:RDF xmlns:rdf="http://www.w3.org/1999/02/22-rdf-syntax-ns#">
      <rdf:Description rdf:about=""/>
   </rdf:RDF>
</x:xmpmeta>
                                                                                                    
                                                                                                    
                                                                                                    
                                                                                                    
                                                                                                    
                                                                                                    
                                                                                                    
                                                                                                    
                                                                                                    
                                                                                                    
                                                                                                    
                                                                                                    
                                                                                                    
                                                                                                    
                                                                                                    
                                                                                                    
                                                                                                    
                                                                                                    
                                                                                                    
                                                                                                    
                           
<?xpacket end="w"?></metadata>
<defs>
    <style>
      .cls-1 {
        fill: #888;
        fill-rule: evenodd;
      }
    </style>
  </defs>
  <path id="上传视频" class="cls-1" d="M5-6c0.184,0,32.818-.008,33,0C44.373-5.713,49-.444,49,6c0,6.471-4.589,11.754-11,12-0.155.006-32.843,0-33,0A12,12,0,1,1,5-6ZM5-5C5.132-5,37.869-5,38-5,43.893-4.793,48,.057,48,6S43.887,16.786,38,17c-0.135,0-32.864,0-33,0A11,11,0,0,1,5-5Zm9,15L11,8v2s-1.037,2-2,2-5.965,0-7,0-2-2-2-2V2S0.984,0,2,0H9s2,0.979,2,2V4l3-2a1.813,1.813,0,0,1,1,1V9A1.666,1.666,0,0,1,14,10ZM9,2H2v8H9V2ZM6,9V5A1.854,1.854,0,0,1,8,5V9A1.853,1.853,0,0,1,6,9Zm34,3H30a1.946,1.946,0,0,1-2-2V2a1.956,1.956,0,0,1,2-2H40a1.936,1.936,0,0,1,2,2v8A2,2,0,0,1,40,12ZM31,2h0v8h8V2H31Zm2,7a0.573,0.573,0,0,0,1,0l4-3c0.024,0.005.023,0.025,0,0L34,3a0.573,0.573,0,0,0-1,0V9Z"/>
</svg>
