<svg xmlns="http://www.w3.org/2000/svg" width="16" height="16" viewBox="0 0 16 16">
  <metadata><?xpacket begin="﻿" id="W5M0MpCehiHzreSzNTczkc9d"?>
<x:xmpmeta xmlns:x="adobe:ns:meta/" x:xmptk="Adobe XMP Core 5.6-c138 79.159824, 2016/09/14-01:09:01        ">
   <rdf:RDF xmlns:rdf="http://www.w3.org/1999/02/22-rdf-syntax-ns#">
      <rdf:Description rdf:about=""/>
   </rdf:RDF>
</x:xmpmeta>
                                                                                                    
                                                                                                    
                                                                                                    
                                                                                                    
                                                                                                    
                                                                                                    
                                                                                                    
                                                                                                    
                                                                                                    
                                                                                                    
                                                                                                    
                                                                                                    
                                                                                                    
                                                                                                    
                                                                                                    
                                                                                                    
                                                                                                    
                                                                                                    
                                                                                                    
                                                                                                    
                           
<?xpacket end="w"?></metadata>
<defs>
    <style>
      .cls-1 {
        fill: #74d200;
      }

      .cls-2, .cls-3 {
        fill: #fff;
      }

      .cls-2 {
        fill-rule: evenodd;
      }
    </style>
  </defs>
  <circle id="椭圆_4" data-name="椭圆 4" class="cls-1" cx="8" cy="8" r="8"/>
  <path id="形状_2" data-name="形状 2" class="cls-2" d="M7.25,6.67a0.5,0.5,0,1,0,.5-0.482A0.489,0.489,0,0,0,7.25,6.67Zm-2.8-.788A0.728,0.728,0,1,0,5.2,6.61,0.739,0.739,0,0,0,4.448,5.882ZM15,9.935a3.253,3.253,0,0,0-1.262-2.526,4.569,4.569,0,0,0-2.562-.988A4.261,4.261,0,0,0,9.433,4,5.774,5.774,0,0,0,6.143,3a5.669,5.669,0,0,0-3.6,1.23A3.977,3.977,0,0,0,1,7.313a3.7,3.7,0,0,0,.435,1.738,4.293,4.293,0,0,0,.979,1.234L2.084,12.078a0.574,0.574,0,0,0,.2.546,0.6,0.6,0,0,0,.385.136,0.57,0.57,0,0,0,.2-0.036L6,11.621c0.35-.008.683-0.031,0.993-0.069a3.005,3.005,0,0,0,.679.868,4.95,4.95,0,0,0,3.26,1.04l2.3,0.523a0.606,0.606,0,0,0,.527-0.128,0.577,0.577,0,0,0,.2-0.489l-0.1-1.017A3.268,3.268,0,0,0,15,9.935Zm-2.08,1.713a0.606,0.606,0,0,0-.238.543l0.05,0.517L11.2,12.363a0.879,0.879,0,0,0-.241-0.032,4.028,4.028,0,0,1-2.379-.648,2.077,2.077,0,0,1-.791-1.749c0-1.321,1.355-2.4,3.022-2.4s3.017,1.075,3.017,2.4A2.169,2.169,0,0,1,12.916,11.648ZM6.658,10.453c-0.27.024-.523,0.037-0.77,0.04l-0.1,0-2.38.841,0.2-1.061a0.739,0.739,0,0,0-.268-0.711A2.877,2.877,0,0,1,2.171,7.317c0-1.753,1.783-3.18,3.976-3.18a4.653,4.653,0,0,1,2.495.7A3.228,3.228,0,0,1,9.982,6.48a4.568,4.568,0,0,0-1.612.592,0.709,0.709,0,0,0,.125-0.4,0.749,0.749,0,1,0-.749.728,0.768,0.768,0,0,0,.191-0.024l-0.049.039A3.258,3.258,0,0,0,6.626,9.939,4.025,4.025,0,0,0,6.658,10.453ZM9.426,8.885a0.627,0.627,0,1,0,.645.627A0.637,0.637,0,0,0,9.426,8.885Zm2.323,0a0.627,0.627,0,1,0,.645.627A0.637,0.637,0,0,0,11.749,8.885Z"/>
  <circle id="椭圆_5" data-name="椭圆 5" class="cls-3" cx="7.5" cy="6.5" r="0.5"/>
</svg>
