<?xml version="1.0" encoding="utf-8"?>
<!-- Generator: Adobe Illustrator 21.0.0, SVG Export Plug-In . SVG Version: 6.00 Build 0)  -->
<svg version="1.1" id="图层_1" xmlns="http://www.w3.org/2000/svg" xmlns:xlink="http://www.w3.org/1999/xlink" x="0px" y="0px"
	 viewBox="0 0 16 16" style="enable-background:new 0 0 16 16;" xml:space="preserve">
<style type="text/css">
	.st0{fill:#FA6D68;}
	.st1{fill:#FFFFFF;}
</style>
<circle id="椭圆_4" class="st0" cx="8" cy="8" r="8"/>
<path id="形状_3" class="st1" d="M14.5,6.1c0-1-0.5-1.9-1.2-2.5c-0.7-0.6-1.6-0.9-2.5-0.8c-0.2,0-0.4,0.2-0.4,0.4c0,0,0,0,0,0
	c0,0.2,0.2,0.4,0.5,0.4c1.4-0.1,2.7,1,2.8,2.5c0,0.2,0.2,0.4,0.4,0.4h0C14.3,6.6,14.5,6.4,14.5,6.1C14.5,6.1,14.5,6.1,14.5,6.1
	L14.5,6.1z M11.3,4.4C11.2,4.4,11.2,4.4,11.3,4.4c-0.3-0.1-0.5-0.1-0.7-0.1c-0.2,0-0.4,0.2-0.4,0.4c0,0.2,0.2,0.4,0.4,0.4
	c0,0,0,0,0,0c0.1,0,0.2,0,0.3,0l0,0c0,0,0.1,0,0.1,0.1c0.5,0.1,0.8,0.5,1,1c0.1,0.2,0.2,0.3,0.4,0.3c0,0,0.1,0,0.1,0
	c0.2-0.1,0.3-0.3,0.3-0.5c0,0,0,0,0,0C12.6,5.2,12,4.7,11.3,4.4L11.3,4.4z M11,8c0,0-0.3-0.1-0.1-0.4c0,0,0.8-1.7-1.4-1.6
	C9,6.1,8.5,6.3,8,6.4c0,0-0.3,0.1-0.3-0.1C8,5.7,7.8,5,7.3,4.7C7,4.6,6.7,4.5,6.4,4.6c0,0-2.5,0.3-4.6,3.8c0,0-1.6,2.8,2,4.3
	c1.8,0.6,3.7,0.7,5.5,0.2c0,0,2.9-0.8,3.3-2.7C12.6,10.2,13.2,8.5,11,8L11,8L11,8z M6.7,12.5c-2.1,0.2-4.1-0.5-4.3-1.8
	C2.2,9.2,4.2,7.6,6.3,7.4c2.1-0.1,4.2,1,4.2,2.5C10.5,11.3,8.8,12.4,6.7,12.5L6.7,12.5L6.7,12.5z M5.7,8.5c-1.1,0-1.9,1-1.9,2.1
	c0,0,0,0,0,0c0.1,0.8,1.3,1.4,2.6,1.2c1,0,1.8-0.9,1.8-1.9C7.9,8.9,6.8,8.2,5.7,8.5C5.7,8.5,5.7,8.5,5.7,8.5L5.7,8.5z M5.4,11.1
	c-0.4,0.1-0.8-0.1-1-0.4c0-0.4,0.3-0.8,0.7-0.8c0,0,0,0,0,0c0.4-0.1,0.8,0.1,0.9,0.5c0,0,0,0,0,0C6.1,10.8,5.8,11.1,5.4,11.1
	L5.4,11.1L5.4,11.1z M6.4,10.1C6.2,10.1,6.1,10,6,9.9c0-0.2,0.1-0.3,0.2-0.3c0,0,0,0,0,0c0.2,0,0.3,0.1,0.4,0.2c0,0,0,0,0,0
	C6.7,9.9,6.5,10,6.4,10.1L6.4,10.1L6.4,10.1z"/>
</svg>
