<svg xmlns="http://www.w3.org/2000/svg" xmlns:xlink="http://www.w3.org/1999/xlink" width="20" height="20.031" viewBox="0 0 20 20.031">
  <metadata><?xpacket begin="﻿" id="W5M0MpCehiHzreSzNTczkc9d"?>
<x:xmpmeta xmlns:x="adobe:ns:meta/" x:xmptk="Adobe XMP Core 5.6-c142 79.160924, 2017/07/13-01:06:39        ">
   <rdf:RDF xmlns:rdf="http://www.w3.org/1999/02/22-rdf-syntax-ns#">
      <rdf:Description rdf:about=""/>
   </rdf:RDF>
</x:xmpmeta>
                                                                                                    
                                                                                                    
                                                                                                    
                                                                                                    
                                                                                                    
                                                                                                    
                                                                                                    
                                                                                                    
                                                                                                    
                                                                                                    
                                                                                                    
                                                                                                    
                                                                                                    
                                                                                                    
                                                                                                    
                                                                                                    
                                                                                                    
                                                                                                    
                                                                                                    
                                                                                                    
                           
<?xpacket end="w"?></metadata>
<defs>
    <style>
      .cls-1 {
        fill: #1986ff;
        fill-rule: evenodd;
        filter: url(#filter);
      }
    </style>
    <filter id="filter" x="34" y="114.969" width="20" height="20.031" filterUnits="userSpaceOnUse">
      <feFlood result="flood" flood-color="#888"/>
      <feComposite result="composite" operator="in" in2="SourceGraphic"/>
      <feBlend result="blend" in2="SourceGraphic"/>
    </filter>
  </defs>
  <path id="运营" class="cls-1" d="M50.513,123.359a3.48,3.48,0,0,1-3.484-3.476,3.436,3.436,0,0,1,.235-1.258,6.478,6.478,0,0,0-3.3-.9A5.479,5.479,0,0,0,42,118l-1-3a17.417,17.417,0,0,1,1.862-.016c0.3,0.008.621,0.014,1.031,0.015H44a9.1,9.1,0,0,1,5.237,1.648A3.478,3.478,0,1,1,50.513,123.359Zm-12.969-.213a6.357,6.357,0,0,0-.088,1.065c0,2,.12,3.6,1.544,4.789l0.089,3.038c-0.031-.019-0.058-0.043-0.089-0.063V132a9.057,9.057,0,0,1-4.277-7.79,9.149,9.149,0,0,1,.249-2.133A3.487,3.487,0,1,1,37.544,123.146Zm6.35,4.9a3.485,3.485,0,0,1,3.105,1.9A5.3,5.3,0,0,0,50,125l3-1a9.323,9.323,0,0,1-5.893,8.874A3.484,3.484,0,1,1,43.895,128.047ZM53,123.977c0-.078.008,0.126,0,0.042,0,0.078,0,.216,0,0.246A1.2,1.2,0,0,1,53,124,0.062,0.062,0,1,1,53,123.977Z" transform="translate(-34 -114.969)"/>
</svg>
